$MeshFormat
4.1 0 8
$EndMeshFormat
$Entities
0 0 1 0
1 0 -5.0595069285 -0.059506928501 1 5.0595069285 0.059506928501 0 0 
$EndEntities
$Nodes
1 1274 1 1274
2 1 0 1274
1
2
3
4
5
6
7
8
9
10
11
12
13
14
15
16
17
18
19
20
21
22
23
24
25
26
27
28
29
30
31
32
33
34
35
36
37
38
39
40
41
42
43
44
45
46
47
48
49
50
51
52
53
54
55
56
57
58
59
60
61
62
63
64
65
66
67
68
69
70
71
72
73
74
75
76
77
78
79
80
81
82
83
84
85
86
87
88
89
90
91
92
93
94
95
96
97
98
99
100
101
102
103
104
105
106
107
108
109
110
111
112
113
114
115
116
117
118
119
120
121
122
123
124
125
126
127
128
129
130
131
132
133
134
135
136
137
138
139
140
141
142
143
144
145
146
147
148
149
150
151
152
153
154
155
156
157
158
159
160
161
162
163
164
165
166
167
168
169
170
171
172
173
174
175
176
177
178
179
180
181
182
183
184
185
186
187
188
189
190
191
192
193
194
195
196
197
198
199
200
201
202
203
204
205
206
207
208
209
210
211
212
213
214
215
216
217
218
219
220
221
222
223
224
225
226
227
228
229
230
231
232
233
234
235
236
237
238
239
240
241
242
243
244
245
246
247
248
249
250
251
252
253
254
255
256
257
258
259
260
261
262
263
264
265
266
267
268
269
270
271
272
273
274
275
276
277
278
279
280
281
282
283
284
285
286
287
288
289
290
291
292
293
294
295
296
297
298
299
300
301
302
303
304
305
306
307
308
309
310
311
312
313
314
315
316
317
318
319
320
321
322
323
324
325
326
327
328
329
330
331
332
333
334
335
336
337
338
339
340
341
342
343
344
345
346
347
348
349
350
351
352
353
354
355
356
357
358
359
360
361
362
363
364
365
366
367
368
369
370
371
372
373
374
375
376
377
378
379
380
381
382
383
384
385
386
387
388
389
390
391
392
393
394
395
396
397
398
399
400
401
402
403
404
405
406
407
408
409
410
411
412
413
414
415
416
417
418
419
420
421
422
423
424
425
426
427
428
429
430
431
432
433
434
435
436
437
438
439
440
441
442
443
444
445
446
447
448
449
450
451
452
453
454
455
456
457
458
459
460
461
462
463
464
465
466
467
468
469
470
471
472
473
474
475
476
477
478
479
480
481
482
483
484
485
486
487
488
489
490
491
492
493
494
495
496
497
498
499
500
501
502
503
504
505
506
507
508
509
510
511
512
513
514
515
516
517
518
519
520
521
522
523
524
525
526
527
528
529
530
531
532
533
534
535
536
537
538
539
540
541
542
543
544
545
546
547
548
549
550
551
552
553
554
555
556
557
558
559
560
561
562
563
564
565
566
567
568
569
570
571
572
573
574
575
576
577
578
579
580
581
582
583
584
585
586
587
588
589
590
591
592
593
594
595
596
597
598
599
600
601
602
603
604
605
606
607
608
609
610
611
612
613
614
615
616
617
618
619
620
621
622
623
624
625
626
627
628
629
630
631
632
633
634
635
636
637
638
639
640
641
642
643
644
645
646
647
648
649
650
651
652
653
654
655
656
657
658
659
660
661
662
663
664
665
666
667
668
669
670
671
672
673
674
675
676
677
678
679
680
681
682
683
684
685
686
687
688
689
690
691
692
693
694
695
696
697
698
699
700
701
702
703
704
705
706
707
708
709
710
711
712
713
714
715
716
717
718
719
720
721
722
723
724
725
726
727
728
729
730
731
732
733
734
735
736
737
738
739
740
741
742
743
744
745
746
747
748
749
750
751
752
753
754
755
756
757
758
759
760
761
762
763
764
765
766
767
768
769
770
771
772
773
774
775
776
777
778
779
780
781
782
783
784
785
786
787
788
789
790
791
792
793
794
795
796
797
798
799
800
801
802
803
804
805
806
807
808
809
810
811
812
813
814
815
816
817
818
819
820
821
822
823
824
825
826
827
828
829
830
831
832
833
834
835
836
837
838
839
840
841
842
843
844
845
846
847
848
849
850
851
852
853
854
855
856
857
858
859
860
861
862
863
864
865
866
867
868
869
870
871
872
873
874
875
876
877
878
879
880
881
882
883
884
885
886
887
888
889
890
891
892
893
894
895
896
897
898
899
900
901
902
903
904
905
906
907
908
909
910
911
912
913
914
915
916
917
918
919
920
921
922
923
924
925
926
927
928
929
930
931
932
933
934
935
936
937
938
939
940
941
942
943
944
945
946
947
948
949
950
951
952
953
954
955
956
957
958
959
960
961
962
963
964
965
966
967
968
969
970
971
972
973
974
975
976
977
978
979
980
981
982
983
984
985
986
987
988
989
990
991
992
993
994
995
996
997
998
999
1000
1001
1002
1003
1004
1005
1006
1007
1008
1009
1010
1011
1012
1013
1014
1015
1016
1017
1018
1019
1020
1021
1022
1023
1024
1025
1026
1027
1028
1029
1030
1031
1032
1033
1034
1035
1036
1037
1038
1039
1040
1041
1042
1043
1044
1045
1046
1047
1048
1049
1050
1051
1052
1053
1054
1055
1056
1057
1058
1059
1060
1061
1062
1063
1064
1065
1066
1067
1068
1069
1070
1071
1072
1073
1074
1075
1076
1077
1078
1079
1080
1081
1082
1083
1084
1085
1086
1087
1088
1089
1090
1091
1092
1093
1094
1095
1096
1097
1098
1099
1100
1101
1102
1103
1104
1105
1106
1107
1108
1109
1110
1111
1112
1113
1114
1115
1116
1117
1118
1119
1120
1121
1122
1123
1124
1125
1126
1127
1128
1129
1130
1131
1132
1133
1134
1135
1136
1137
1138
1139
1140
1141
1142
1143
1144
1145
1146
1147
1148
1149
1150
1151
1152
1153
1154
1155
1156
1157
1158
1159
1160
1161
1162
1163
1164
1165
1166
1167
1168
1169
1170
1171
1172
1173
1174
1175
1176
1177
1178
1179
1180
1181
1182
1183
1184
1185
1186
1187
1188
1189
1190
1191
1192
1193
1194
1195
1196
1197
1198
1199
1200
1201
1202
1203
1204
1205
1206
1207
1208
1209
1210
1211
1212
1213
1214
1215
1216
1217
1218
1219
1220
1221
1222
1223
1224
1225
1226
1227
1228
1229
1230
1231
1232
1233
1234
1235
1236
1237
1238
1239
1240
1241
1242
1243
1244
1245
1246
1247
1248
1249
1250
1251
1252
1253
1254
1255
1256
1257
1258
1259
1260
1261
1262
1263
1264
1265
1266
1267
1268
1269
1270
1271
1272
1273
1274
1 0 0
0.98414844626 0.39947442185 -0.0022060149078
1 0.39947442185 0
0.98414844626 0 -0.0022060149078
0.95982161505 0.39947442185 -0.0055219763305
0.95982161505 0 -0.0055219763305
0.92331020388 0.39947442185 -0.01034480542
0.92331020388 0 -0.01034480542
0.87030448965 0.39947442185 -0.017030090029
0.87030448965 0 -0.017030090029
0.79695803833 0.39947442185 -0.025685101897
0.79695803833 0 -0.025685101897
0.70192689193 0.39947442185 -0.035851724287
0.70192689193 0 -0.035851724287
0.5887637878 0.39947442185 -0.046245564808
0.5887637878 0 -0.046245564808
0.46678824105 0.39947442185 -0.054824238287
0.46678824105 0 -0.054824238287
0.34867161706 0 -0.059506928501
0.34867161706 0.39947442185 -0.059506928501
0.24565152047 0 -0.059293117796
0.24565152047 0.39947442185 -0.059293117796
0.16380190832 0 -0.05474724921
0.16380190832 0.39947442185 -0.05474724921
0.10361138312 0 -0.047424623209
0.10361138312 0.39947442185 -0.047424623209
0.062004804867 0 -0.038921434858
0.062004804867 0.39947442185 -0.038921434858
0.034701656177 0 -0.030355359608
0.034701656177 0.39947442185 -0.030355359608
0.017711394777 0 -0.02235290526
0.017711394777 0.39947442185 -0.02235290526
0.0078928270998 0 -0.015263251853
0.0078928270998 0.39947442185 -0.015263251853
0.0028852305479 0 -0.0093840764449
0.0028852305479 0.39947442185 -0.0093840764449
0.00078807384983 0 -0.0049615619954
0.00078807384983 0.39947442185 -0.0049615619954
0.00011903597513 0 -0.0019435181458
0.00011903597513 0.39947442185 -0.0019435181458
0 0 0
0 0.39947442185 0
0.00011903597513 0.39947442185 0.0019435181458
0.00011903597513 0 0.0019435181458
0.00078807384983 0.39947442185 0.0049615619954
0.00078807384983 0 0.0049615619954
0.0028852305479 0.39947442185 0.0093840764449
0.0028852305479 0 0.0093840764449
0.0078928270998 0.39947442185 0.015263251853
0.0078928270998 0 0.015263251853
0.017711394777 0.39947442185 0.02235290526
0.017711394777 0 0.02235290526
0.034701656177 0.39947442185 0.030355359608
0.034701656177 0 0.030355359608
0.062004804867 0.39947442185 0.038921434858
0.062004804867 0 0.038921434858
0.10361138312 0.39947442185 0.047424623209
0.10361138312 0 0.047424623209
0.16380190832 0.39947442185 0.05474724921
0.16380190832 0 0.05474724921
0.24565152047 0.39947442185 0.059293117796
0.24565152047 0 0.059293117796
0.34867161706 0.39947442185 0.059506928501
0.34867161706 0 0.059506928501
0.46678824105 0.39947442185 0.054824238287
0.46678824105 0 0.054824238287
0.5887637878 0 0.046245564808
0.5887637878 0.39947442185 0.046245564808
0.70192689193 0 0.035851724287
0.70192689193 0.39947442185 0.035851724287
0.79695803833 0 0.025685101897
0.79695803833 0.39947442185 0.025685101897
0.87030448965 0 0.017030090029
0.87030448965 0.39947442185 0.017030090029
0.92331020388 0 0.01034480542
0.92331020388 0.39947442185 0.01034480542
0.95982161505 0 0.0055219763305
0.95982161505 0.39947442185 0.0055219763305
0.98414844626 0 0.0022060149078
0.98414844626 0.39947442185 0.0022060149078
0.98414844626 0.8807373629900001 -0.0022060149078
1 0.8807373629900001 0
0.95982161505 0.8807373629900001 -0.0055219763305
0.92331020388 0.8807373629900001 -0.01034480542
0.87030448965 0.8807373629900001 -0.017030090029
0.79695803833 0.8807373629900001 -0.025685101897
0.70192689193 0.8807373629900001 -0.035851724287
0.5887637878 0.8807373629900001 -0.046245564808
0.46678824105 0.8807373629900001 -0.054824238287
0.34867161706 0.8807373629900001 -0.059506928501
0.24565152047 0.8807373629900001 -0.059293117796
0.16380190832 0.8807373629900001 -0.05474724921
0.10361138312 0.8807373629900001 -0.047424623209
0.062004804867 0.8807373629900001 -0.038921434858
0.034701656177 0.8807373629900001 -0.030355359608
0.017711394777 0.8807373629900001 -0.02235290526
0.0078928270998 0.8807373629900001 -0.015263251853
0.0028852305479 0.8807373629900001 -0.0093840764449
0.00078807384983 0.8807373629900001 -0.0049615619954
0.00011903597513 0.8807373629900001 -0.0019435181458
0 0.8807373629900001 0
0.00011903597513 0.8807373629900001 0.0019435181458
0.00078807384983 0.8807373629900001 0.0049615619954
0.0028852305479 0.8807373629900001 0.0093840764449
0.0078928270998 0.8807373629900001 0.015263251853
0.017711394777 0.8807373629900001 0.02235290526
0.034701656177 0.8807373629900001 0.030355359608
0.062004804867 0.8807373629900001 0.038921434858
0.10361138312 0.8807373629900001 0.047424623209
0.16380190832 0.8807373629900001 0.05474724921
0.24565152047 0.8807373629900001 0.059293117796
0.34867161706 0.8807373629900001 0.059506928501
0.46678824105 0.8807373629900001 0.054824238287
0.5887637878 0.8807373629900001 0.046245564808
0.70192689193 0.8807373629900001 0.035851724287
0.79695803833 0.8807373629900001 0.025685101897
0.87030448965 0.8807373629900001 0.017030090029
0.92331020388 0.8807373629900001 0.01034480542
0.95982161505 0.8807373629900001 0.0055219763305
0.98414844626 0.8807373629900001 0.0022060149078
0.98414844626 1.428573408 -0.0022060149078
1 1.428573408 0
0.95982161505 1.428573408 -0.0055219763305
0.92331020388 1.428573408 -0.01034480542
0.87030448965 1.428573408 -0.017030090029
0.79695803833 1.428573408 -0.025685101897
0.70192689193 1.428573408 -0.035851724287
0.5887637878 1.428573408 -0.046245564808
0.46678824105 1.428573408 -0.054824238287
0.34867161706 1.428573408 -0.059506928501
0.24565152047 1.428573408 -0.059293117796
0.16380190832 1.428573408 -0.05474724921
0.10361138312 1.428573408 -0.047424623209
0.062004804867 1.428573408 -0.038921434858
0.034701656177 1.428573408 -0.030355359608
0.017711394777 1.428573408 -0.02235290526
0.0078928270998 1.428573408 -0.015263251853
0.0028852305479 1.428573408 -0.0093840764449
0.00078807384983 1.428573408 -0.0049615619954
0.00011903597513 1.428573408 -0.0019435181458
0 1.428573408 0
0.00011903597513 1.428573408 0.0019435181458
0.00078807384983 1.428573408 0.0049615619954
0.0028852305479 1.428573408 0.0093840764449
0.0078928270998 1.428573408 0.015263251853
0.017711394777 1.428573408 0.02235290526
0.034701656177 1.428573408 0.030355359608
0.062004804867 1.428573408 0.038921434858
0.10361138312 1.428573408 0.047424623209
0.16380190832 1.428573408 0.05474724921
0.24565152047 1.428573408 0.059293117796
0.34867161706 1.428573408 0.059506928501
0.46678824105 1.428573408 0.054824238287
0.5887637878 1.428573408 0.046245564808
0.70192689193 1.428573408 0.035851724287
0.79695803833 1.428573408 0.025685101897
0.87030448965 1.428573408 0.017030090029
0.92331020388 1.428573408 0.01034480542
0.95982161505 1.428573408 0.0055219763305
0.98414844626 1.428573408 0.0022060149078
0.98414844626 2.0133560182 -0.0022060149078
1 2.0133560182 0
0.95982161505 2.0133560182 -0.0055219763305
0.92331020388 2.0133560182 -0.01034480542
0.87030448965 2.0133560182 -0.017030090029
0.79695803833 2.0133560182 -0.025685101897
0.70192689193 2.0133560182 -0.035851724287
0.5887637878 2.0133560182 -0.046245564808
0.46678824105 2.0133560182 -0.054824238287
0.34867161706 2.0133560182 -0.059506928501
0.24565152047 2.0133560182 -0.059293117796
0.16380190832 2.0133560182 -0.05474724921
0.10361138312 2.0133560182 -0.047424623209
0.062004804867 2.0133560182 -0.038921434858
0.034701656177 2.0133560182 -0.030355359608
0.017711394777 2.0133560182 -0.02235290526
0.0078928270998 2.0133560182 -0.015263251853
0.0028852305479 2.0133560182 -0.0093840764449
0.00078807384983 2.0133560182 -0.0049615619954
0.00011903597513 2.0133560182 -0.0019435181458
0 2.0133560182 0
0.00011903597513 2.0133560182 0.0019435181458
0.00078807384983 2.0133560182 0.0049615619954
0.0028852305479 2.0133560182 0.0093840764449
0.0078928270998 2.0133560182 0.015263251853
0.017711394777 2.0133560182 0.02235290526
0.034701656177 2.0133560182 0.030355359608
0.062004804867 2.0133560182 0.038921434858
0.10361138312 2.0133560182 0.047424623209
0.16380190832 2.0133560182 0.05474724921
0.24565152047 2.0133560182 0.059293117796
0.34867161706 2.0133560182 0.059506928501
0.46678824105 2.0133560182 0.054824238287
0.5887637878 2.0133560182 0.046245564808
0.70192689193 2.0133560182 0.035851724287
0.79695803833 2.0133560182 0.025685101897
0.87030448965 2.0133560182 0.017030090029
0.92331020388 2.0133560182 0.01034480542
0.95982161505 2.0133560182 0.0055219763305
0.98414844626 2.0133560182 0.0022060149078
0.98414844626 2.5962556796 -0.0022060149078
1 2.5962556796 0
0.95982161505 2.5962556796 -0.0055219763305
0.92331020388 2.5962556796 -0.01034480542
0.87030448965 2.5962556796 -0.017030090029
0.79695803833 2.5962556796 -0.025685101897
0.70192689193 2.5962556796 -0.035851724287
0.5887637878 2.5962556796 -0.046245564808
0.46678824105 2.5962556796 -0.054824238287
0.34867161706 2.5962556796 -0.059506928501
0.24565152047 2.5962556796 -0.059293117796
0.16380190832 2.5962556796 -0.05474724921
0.10361138312 2.5962556796 -0.047424623209
0.062004804867 2.5962556796 -0.038921434858
0.034701656177 2.5962556796 -0.030355359608
0.017711394777 2.5962556796 -0.02235290526
0.0078928270998 2.5962556796 -0.015263251853
0.0028852305479 2.5962556796 -0.0093840764449
0.00078807384983 2.5962556796 -0.0049615619954
0.00011903597513 2.5962556796 -0.0019435181458
0 2.5962556796 0
0.00011903597513 2.5962556796 0.0019435181458
0.00078807384983 2.5962556796 0.0049615619954
0.0028852305479 2.5962556796 0.0093840764449
0.0078928270998 2.5962556796 0.015263251853
0.017711394777 2.5962556796 0.02235290526
0.034701656177 2.5962556796 0.030355359608
0.062004804867 2.5962556796 0.038921434858
0.10361138312 2.5962556796 0.047424623209
0.16380190832 2.5962556796 0.05474724921
0.24565152047 2.5962556796 0.059293117796
0.34867161706 2.5962556796 0.059506928501
0.46678824105 2.5962556796 0.054824238287
0.5887637878 2.5962556796 0.046245564808
0.70192689193 2.5962556796 0.035851724287
0.79695803833 2.5962556796 0.025685101897
0.87030448965 2.5962556796 0.017030090029
0.92331020388 2.5962556796 0.01034480542
0.95982161505 2.5962556796 0.0055219763305
0.98414844626 2.5962556796 0.0022060149078
0.98414844626 3.1389324637 -0.0022060149078
1 3.1389324637 0
0.95982161505 3.1389324637 -0.0055219763305
0.92331020388 3.1389324637 -0.01034480542
0.87030448965 3.1389324637 -0.017030090029
0.79695803833 3.1389324637 -0.025685101897
0.70192689193 3.1389324637 -0.035851724287
0.5887637878 3.1389324637 -0.046245564808
0.46678824105 3.1389324637 -0.054824238287
0.34867161706 3.1389324637 -0.059506928501
0.24565152047 3.1389324637 -0.059293117796
0.16380190832 3.1389324637 -0.05474724921
0.10361138312 3.1389324637 -0.047424623209
0.062004804867 3.1389324637 -0.038921434858
0.034701656177 3.1389324637 -0.030355359608
0.017711394777 3.1389324637 -0.02235290526
0.0078928270998 3.1389324637 -0.015263251853
0.0028852305479 3.1389324637 -0.0093840764449
0.00078807384983 3.1389324637 -0.0049615619954
0.00011903597513 3.1389324637 -0.0019435181458
0 3.1389324637 0
0.00011903597513 3.1389324637 0.0019435181458
0.00078807384983 3.1389324637 0.0049615619954
0.0028852305479 3.1389324637 0.0093840764449
0.0078928270998 3.1389324637 0.015263251853
0.017711394777 3.1389324637 0.02235290526
0.034701656177 3.1389324637 0.030355359608
0.062004804867 3.1389324637 0.038921434858
0.10361138312 3.1389324637 0.047424623209
0.16380190832 3.1389324637 0.05474724921
0.24565152047 3.1389324637 0.059293117796
0.34867161706 3.1389324637 0.059506928501
0.46678824105 3.1389324637 0.054824238287
0.5887637878 3.1389324637 0.046245564808
0.70192689193 3.1389324637 0.035851724287
0.79695803833 3.1389324637 0.025685101897
0.87030448965 3.1389324637 0.017030090029
0.92331020388 3.1389324637 0.01034480542
0.95982161505 3.1389324637 0.0055219763305
0.98414844626 3.1389324637 0.0022060149078
0.98414844626 3.6129769752 -0.0022060149078
1 3.6129769752 0
0.95982161505 3.6129769752 -0.0055219763305
0.92331020388 3.6129769752 -0.01034480542
0.87030448965 3.6129769752 -0.017030090029
0.79695803833 3.6129769752 -0.025685101897
0.70192689193 3.6129769752 -0.035851724287
0.5887637878 3.6129769752 -0.046245564808
0.46678824105 3.6129769752 -0.054824238287
0.34867161706 3.6129769752 -0.059506928501
0.24565152047 3.6129769752 -0.059293117796
0.16380190832 3.6129769752 -0.05474724921
0.10361138312 3.6129769752 -0.047424623209
0.062004804867 3.6129769752 -0.038921434858
0.034701656177 3.6129769752 -0.030355359608
0.017711394777 3.6129769752 -0.02235290526
0.0078928270998 3.6129769752 -0.015263251853
0.0028852305479 3.6129769752 -0.0093840764449
0.00078807384983 3.6129769752 -0.0049615619954
0.00011903597513 3.6129769752 -0.0019435181458
0 3.6129769752 0
0.00011903597513 3.6129769752 0.0019435181458
0.00078807384983 3.6129769752 0.0049615619954
0.0028852305479 3.6129769752 0.0093840764449
0.0078928270998 3.6129769752 0.015263251853
0.017711394777 3.6129769752 0.02235290526
0.034701656177 3.6129769752 0.030355359608
0.062004804867 3.6129769752 0.038921434858
0.10361138312 3.6129769752 0.047424623209
0.16380190832 3.6129769752 0.05474724921
0.24565152047 3.6129769752 0.059293117796
0.34867161706 3.6129769752 0.059506928501
0.46678824105 3.6129769752 0.054824238287
0.5887637878 3.6129769752 0.046245564808
0.70192689193 3.6129769752 0.035851724287
0.79695803833 3.6129769752 0.025685101897
0.87030448965 3.6129769752 0.017030090029
0.92331020388 3.6129769752 0.01034480542
0.95982161505 3.6129769752 0.0055219763305
0.98414844626 3.6129769752 0.0022060149078
0.98414844626 4.00456641 -0.0022060149078
1 4.00456641 0
0.95982161505 4.00456641 -0.0055219763305
0.92331020388 4.00456641 -0.01034480542
0.87030448965 4.00456641 -0.017030090029
0.79695803833 4.00456641 -0.025685101897
0.70192689193 4.00456641 -0.035851724287
0.5887637878 4.00456641 -0.046245564808
0.46678824105 4.00456641 -0.054824238287
0.34867161706 4.00456641 -0.059506928501
0.24565152047 4.00456641 -0.059293117796
0.16380190832 4.00456641 -0.05474724921
0.10361138312 4.00456641 -0.047424623209
0.062004804867 4.00456641 -0.038921434858
0.034701656177 4.00456641 -0.030355359608
0.017711394777 4.00456641 -0.02235290526
0.0078928270998 4.00456641 -0.015263251853
0.0028852305479 4.00456641 -0.0093840764449
0.00078807384983 4.00456641 -0.0049615619954
0.00011903597513 4.00456641 -0.0019435181458
0 4.00456641 0
0.00011903597513 4.00456641 0.0019435181458
0.00078807384983 4.00456641 0.0049615619954
0.0028852305479 4.00456641 0.0093840764449
0.0078928270998 4.00456641 0.015263251853
0.017711394777 4.00456641 0.02235290526
0.034701656177 4.00456641 0.030355359608
0.062004804867 4.00456641 0.038921434858
0.10361138312 4.00456641 0.047424623209
0.16380190832 4.00456641 0.05474724921
0.24565152047 4.00456641 0.059293117796
0.34867161706 4.00456641 0.059506928501
0.46678824105 4.00456641 0.054824238287
0.5887637878 4.00456641 0.046245564808
0.70192689193 4.00456641 0.035851724287
0.79695803833 4.00456641 0.025685101897
0.87030448965 4.00456641 0.017030090029
0.92331020388 4.00456641 0.01034480542
0.95982161505 4.00456641 0.0055219763305
0.98414844626 4.00456641 0.0022060149078
0.98414844626 4.3133835291 -0.0022060149078
1 4.3133835291 0
0.95982161505 4.3133835291 -0.0055219763305
0.92331020388 4.3133835291 -0.01034480542
0.87030448965 4.3133835291 -0.017030090029
0.79695803833 4.3133835291 -0.025685101897
0.70192689193 4.3133835291 -0.035851724287
0.5887637878 4.3133835291 -0.046245564808
0.46678824105 4.3133835291 -0.054824238287
0.34867161706 4.3133835291 -0.059506928501
0.24565152047 4.3133835291 -0.059293117796
0.16380190832 4.3133835291 -0.05474724921
0.10361138312 4.3133835291 -0.047424623209
0.062004804867 4.3133835291 -0.038921434858
0.034701656177 4.3133835291 -0.030355359608
0.017711394777 4.3133835291 -0.02235290526
0.0078928270998 4.3133835291 -0.015263251853
0.0028852305479 4.3133835291 -0.0093840764449
0.00078807384983 4.3133835291 -0.0049615619954
0.00011903597513 4.3133835291 -0.0019435181458
0 4.3133835291 0
0.00011903597513 4.3133835291 0.0019435181458
0.00078807384983 4.3133835291 0.0049615619954
0.0028852305479 4.3133835291 0.0093840764449
0.0078928270998 4.3133835291 0.015263251853
0.017711394777 4.3133835291 0.02235290526
0.034701656177 4.3133835291 0.030355359608
0.062004804867 4.3133835291 0.038921434858
0.10361138312 4.3133835291 0.047424623209
0.16380190832 4.3133835291 0.05474724921
0.24565152047 4.3133835291 0.059293117796
0.34867161706 4.3133835291 0.059506928501
0.46678824105 4.3133835291 0.054824238287
0.5887637878 4.3133835291 0.046245564808
0.70192689193 4.3133835291 0.035851724287
0.79695803833 4.3133835291 0.025685101897
0.87030448965 4.3133835291 0.017030090029
0.92331020388 4.3133835291 0.01034480542
0.95982161505 4.3133835291 0.0055219763305
0.98414844626 4.3133835291 0.0022060149078
0.98414844626 4.5481362137 -0.0022060149078
1 4.5481362137 0
0.95982161505 4.5481362137 -0.0055219763305
0.92331020388 4.5481362137 -0.01034480542
0.87030448965 4.5481362137 -0.017030090029
0.79695803833 4.5481362137 -0.025685101897
0.70192689193 4.5481362137 -0.035851724287
0.5887637878 4.5481362137 -0.046245564808
0.46678824105 4.5481362137 -0.054824238287
0.34867161706 4.5481362137 -0.059506928501
0.24565152047 4.5481362137 -0.059293117796
0.16380190832 4.5481362137 -0.05474724921
0.10361138312 4.5481362137 -0.047424623209
0.062004804867 4.5481362137 -0.038921434858
0.034701656177 4.5481362137 -0.030355359608
0.017711394777 4.5481362137 -0.02235290526
0.0078928270998 4.5481362137 -0.015263251853
0.0028852305479 4.5481362137 -0.0093840764449
0.00078807384983 4.5481362137 -0.0049615619954
0.00011903597513 4.5481362137 -0.0019435181458
0 4.5481362137 0
0.00011903597513 4.5481362137 0.0019435181458
0.00078807384983 4.5481362137 0.0049615619954
0.0028852305479 4.5481362137 0.0093840764449
0.0078928270998 4.5481362137 0.015263251853
0.017711394777 4.5481362137 0.02235290526
0.034701656177 4.5481362137 0.030355359608
0.062004804867 4.5481362137 0.038921434858
0.10361138312 4.5481362137 0.047424623209
0.16380190832 4.5481362137 0.05474724921
0.24565152047 4.5481362137 0.059293117796
0.34867161706 4.5481362137 0.059506928501
0.46678824105 4.5481362137 0.054824238287
0.5887637878 4.5481362137 0.046245564808
0.70192689193 4.5481362137 0.035851724287
0.79695803833 4.5481362137 0.025685101897
0.87030448965 4.5481362137 0.017030090029
0.92331020388 4.5481362137 0.01034480542
0.95982161505 4.5481362137 0.0055219763305
0.98414844626 4.5481362137 0.0022060149078
0.98414844626 4.7216497867 -0.0022060149078
1 4.7216497867 0
0.95982161505 4.7216497867 -0.0055219763305
0.92331020388 4.7216497867 -0.01034480542
0.87030448965 4.7216497867 -0.017030090029
0.79695803833 4.7216497867 -0.025685101897
0.70192689193 4.7216497867 -0.035851724287
0.5887637878 4.7216497867 -0.046245564808
0.46678824105 4.7216497867 -0.054824238287
0.34867161706 4.7216497867 -0.059506928501
0.24565152047 4.7216497867 -0.059293117796
0.16380190832 4.7216497867 -0.05474724921
0.10361138312 4.7216497867 -0.047424623209
0.062004804867 4.7216497867 -0.038921434858
0.034701656177 4.7216497867 -0.030355359608
0.017711394777 4.7216497867 -0.02235290526
0.0078928270998 4.7216497867 -0.015263251853
0.0028852305479 4.7216497867 -0.0093840764449
0.00078807384983 4.7216497867 -0.0049615619954
0.00011903597513 4.7216497867 -0.0019435181458
0 4.7216497867 0
0.00011903597513 4.7216497867 0.0019435181458
0.00078807384983 4.7216497867 0.0049615619954
0.0028852305479 4.7216497867 0.0093840764449
0.0078928270998 4.7216497867 0.015263251853
0.017711394777 4.7216497867 0.02235290526
0.034701656177 4.7216497867 0.030355359608
0.062004804867 4.7216497867 0.038921434858
0.10361138312 4.7216497867 0.047424623209
0.16380190832 4.7216497867 0.05474724921
0.24565152047 4.7216497867 0.059293117796
0.34867161706 4.7216497867 0.059506928501
0.46678824105 4.7216497867 0.054824238287
0.5887637878 4.7216497867 0.046245564808
0.70192689193 4.7216497867 0.035851724287
0.79695803833 4.7216497867 0.025685101897
0.87030448965 4.7216497867 0.017030090029
0.92331020388 4.7216497867 0.01034480542
0.95982161505 4.7216497867 0.0055219763305
0.98414844626 4.7216497867 0.0022060149078
0.98414844626 4.8472574701 -0.0022060149078
1 4.8472574701 0
0.95982161505 4.8472574701 -0.0055219763305
0.92331020388 4.8472574701 -0.01034480542
0.87030448965 4.8472574701 -0.017030090029
0.79695803833 4.8472574701 -0.025685101897
0.70192689193 4.8472574701 -0.035851724287
0.5887637878 4.8472574701 -0.046245564808
0.46678824105 4.8472574701 -0.054824238287
0.34867161706 4.8472574701 -0.059506928501
0.24565152047 4.8472574701 -0.059293117796
0.16380190832 4.8472574701 -0.05474724921
0.10361138312 4.8472574701 -0.047424623209
0.062004804867 4.8472574701 -0.038921434858
0.034701656177 4.8472574701 -0.030355359608
0.017711394777 4.8472574701 -0.02235290526
0.0078928270998 4.8472574701 -0.015263251853
0.0028852305479 4.8472574701 -0.0093840764449
0.00078807384983 4.8472574701 -0.0049615619954
0.00011903597513 4.8472574701 -0.0019435181458
0 4.8472574701 0
0.00011903597513 4.8472574701 0.0019435181458
0.00078807384983 4.8472574701 0.0049615619954
0.0028852305479 4.8472574701 0.0093840764449
0.0078928270998 4.8472574701 0.015263251853
0.017711394777 4.8472574701 0.02235290526
0.034701656177 4.8472574701 0.030355359608
0.062004804867 4.8472574701 0.038921434858
0.10361138312 4.8472574701 0.047424623209
0.16380190832 4.8472574701 0.05474724921
0.24565152047 4.8472574701 0.059293117796
0.34867161706 4.8472574701 0.059506928501
0.46678824105 4.8472574701 0.054824238287
0.5887637878 4.8472574701 0.046245564808
0.70192689193 4.8472574701 0.035851724287
0.79695803833 4.8472574701 0.025685101897
0.87030448965 4.8472574701 0.017030090029
0.92331020388 4.8472574701 0.01034480542
0.95982161505 4.8472574701 0.0055219763305
0.98414844626 4.8472574701 0.0022060149078
0.98414844626 4.9368219891 -0.0022060149078
1 4.9368219891 0
0.95982161505 4.9368219891 -0.0055219763305
0.92331020388 4.9368219891 -0.01034480542
0.87030448965 4.9368219891 -0.017030090029
0.79695803833 4.9368219891 -0.025685101897
0.70192689193 4.9368219891 -0.035851724287
0.5887637878 4.9368219891 -0.046245564808
0.46678824105 4.9368219891 -0.054824238287
0.34867161706 4.9368219891 -0.059506928501
0.24565152047 4.9368219891 -0.059293117796
0.16380190832 4.9368219891 -0.05474724921
0.10361138312 4.9368219891 -0.047424623209
0.062004804867 4.9368219891 -0.038921434858
0.034701656177 4.9368219891 -0.030355359608
0.017711394777 4.9368219891 -0.02235290526
0.0078928270998 4.9368219891 -0.015263251853
0.0028852305479 4.9368219891 -0.0093840764449
0.00078807384983 4.9368219891 -0.0049615619954
0.00011903597513 4.9368219891 -0.0019435181458
0 4.9368219891 0
0.00011903597513 4.9368219891 0.0019435181458
0.00078807384983 4.9368219891 0.0049615619954
0.0028852305479 4.9368219891 0.0093840764449
0.0078928270998 4.9368219891 0.015263251853
0.017711394777 4.9368219891 0.02235290526
0.034701656177 4.9368219891 0.030355359608
0.062004804867 4.9368219891 0.038921434858
0.10361138312 4.9368219891 0.047424623209
0.16380190832 4.9368219891 0.05474724921
0.24565152047 4.9368219891 0.059293117796
0.34867161706 4.9368219891 0.059506928501
0.46678824105 4.9368219891 0.054824238287
0.5887637878 4.9368219891 0.046245564808
0.70192689193 4.9368219891 0.035851724287
0.79695803833 4.9368219891 0.025685101897
0.87030448965 4.9368219891 0.017030090029
0.92331020388 4.9368219891 0.01034480542
0.95982161505 4.9368219891 0.0055219763305
0.98414844626 4.9368219891 0.0022060149078
0.98414844626 5 -0.0022060149078
1 5 0
0.95982161505 5 -0.0055219763305
0.92331020388 5 -0.01034480542
0.87030448965 5 -0.017030090029
0.79695803833 5 -0.025685101897
0.70192689193 5 -0.035851724287
0.5887637878 5 -0.046245564808
0.46678824105 5 -0.054824238287
0.34867161706 5 -0.059506928501
0.24565152047 5 -0.059293117796
0.16380190832 5 -0.05474724921
0.10361138312 5 -0.047424623209
0.062004804867 5 -0.038921434858
0.034701656177 5 -0.030355359608
0.017711394777 5 -0.02235290526
0.0078928270998 5 -0.015263251853
0.0028852305479 5 -0.0093840764449
0.00078807384983 5 -0.0049615619954
0.00011903597513 5 -0.0019435181458
0 5 0
0.00011903597513 5 0.0019435181458
0.00078807384983 5 0.0049615619954
0.0028852305479 5 0.0093840764449
0.0078928270998 5 0.015263251853
0.017711394777 5 0.02235290526
0.034701656177 5 0.030355359608
0.062004804867 5 0.038921434858
0.10361138312 5 0.047424623209
0.16380190832 5 0.05474724921
0.24565152047 5 0.059293117796
0.34867161706 5 0.059506928501
0.46678824105 5 0.054824238287
0.5887637878 5 0.046245564808
0.70192689193 5 0.035851724287
0.79695803833 5 0.025685101897
0.87030448965 5 0.017030090029
0.92331020388 5 0.01034480542
0.95982161505 5 0.0055219763305
0.98414844626 5 0.0022060149078
0.98414844626 5.0015595822 -0.0015595822433
0.95982161505 5.0039038613 -0.0039038613034
0.92331020388 5.0073134478 -0.0073134477866
0.87030448965 5.012039731 -0.012039730973
0.79695803833 5.0181585486 -0.018158548564
0.70192689193 5.0253460266 -0.025346026627
0.5887637878 5.0326941407 -0.032694140666
0.46678824105 5.0387589895 -0.03875898945
0.34867161706 5.0420695022 -0.042069502213
0.24565152047 5.0419183449 -0.041918344858
0.16380190832 5.0387045606 -0.038704560626
0.10361138312 5.0335276974 -0.033527697384
0.062004804867 5.0275162142 -0.027516214182
0.034701656177 5.0214602719 -0.021460271945
0.017711394777 5.0158027917 -0.015802791725
0.0078928270998 5.0107906327 -0.010790632684
0.0028852305479 5.006634243 -0.0066342430153
0.00078807384983 5.0035076662 -0.0035076662265
0.00011903597513 5.0013740054 -0.0013740053973
0.00011903597513 5.0013740054 0.0013740053973
0.00078807384983 5.0035076662 0.0035076662265
0.0028852305479 5.006634243 0.0066342430153
0.0078928270998 5.0107906327 0.010790632684
0.017711394777 5.0158027917 0.015802791725
0.034701656177 5.0214602719 0.021460271945
0.062004804867 5.0275162142 0.027516214182
0.10361138312 5.0335276974 0.033527697384
0.16380190832 5.0387045606 0.038704560626
0.24565152047 5.0419183449 0.041918344858
0.34867161706 5.0420695022 0.042069502213
0.46678824105 5.0387589895 0.03875898945
0.5887637878 5.0326941407 0.032694140666
0.70192689193 5.0253460266 0.025346026627
0.79695803833 5.0181585486 0.018158548564
0.87030448965 5.012039731 0.012039730973
0.92331020388 5.0073134478 0.0073134477866
0.95982161505 5.0039038613 0.0039038613034
0.98414844626 5.0015595822 0.0015595822433
0.98414844626 5.0022060149 1.7732979302e-16
0.95982161505 5.0055219763 2.7371488147e-16
0.92331020388 5.0103448054 1.7573233632e-16
0.87030448965 5.01703009 8.7465325499e-18
0.79695803833 5.0256851019 -1.1740512272e-17
0.70192689193 5.0358517243 -4.8717105359e-17
0.5887637878 5.0462455648 -2.7305176084e-17
0.46678824105 5.0548242383 -2.7072930296e-17
0.34867161706 5.0595069285 -1.5575177618e-18
0.24565152047 5.0592931178 3.9031521459e-18
0.16380190832 5.0547472492 3.9725624186e-17
0.10361138312 5.0474246232 3.9445557956e-17
0.062004804867 5.0389214349 9.0585984971e-17
0.034701656177 5.0303553596 7.803553300799999e-17
0.017711394777 5.0223529053 9.0731047562e-17
0.0078928270998 5.0152632519 1.5502098987e-16
0.0028852305479 5.0093840764 2.3811738457e-16
0.00078807384983 5.004961562 -6.993597499800001e-18
0.00011903597513 5.0019435181 -6.5551522647e-17
1 -0.39947442185 0
0.98414844626 -0.39947442185 -0.0022060149078
0.95982161505 -0.39947442185 -0.0055219763305
0.92331020388 -0.39947442185 -0.01034480542
0.87030448965 -0.39947442185 -0.017030090029
0.79695803833 -0.39947442185 -0.025685101897
0.70192689193 -0.39947442185 -0.035851724287
0.5887637878 -0.39947442185 -0.046245564808
0.46678824105 -0.39947442185 -0.054824238287
0.34867161706 -0.39947442185 -0.059506928501
0.24565152047 -0.39947442185 -0.059293117796
0.16380190832 -0.39947442185 -0.05474724921
0.10361138312 -0.39947442185 -0.047424623209
0.062004804867 -0.39947442185 -0.038921434858
0.034701656177 -0.39947442185 -0.030355359608
0.017711394777 -0.39947442185 -0.02235290526
0.0078928270998 -0.39947442185 -0.015263251853
0.0028852305479 -0.39947442185 -0.0093840764449
0.00078807384983 -0.39947442185 -0.0049615619954
0.00011903597513 -0.39947442185 -0.0019435181458
0 -0.39947442185 0
0.00011903597513 -0.39947442185 0.0019435181458
0.00078807384983 -0.39947442185 0.0049615619954
0.0028852305479 -0.39947442185 0.0093840764449
0.0078928270998 -0.39947442185 0.015263251853
0.017711394777 -0.39947442185 0.02235290526
0.034701656177 -0.39947442185 0.030355359608
0.062004804867 -0.39947442185 0.038921434858
0.10361138312 -0.39947442185 0.047424623209
0.16380190832 -0.39947442185 0.05474724921
0.24565152047 -0.39947442185 0.059293117796
0.34867161706 -0.39947442185 0.059506928501
0.46678824105 -0.39947442185 0.054824238287
0.5887637878 -0.39947442185 0.046245564808
0.70192689193 -0.39947442185 0.035851724287
0.79695803833 -0.39947442185 0.025685101897
0.87030448965 -0.39947442185 0.017030090029
0.92331020388 -0.39947442185 0.01034480542
0.95982161505 -0.39947442185 0.0055219763305
0.98414844626 -0.39947442185 0.0022060149078
1 -0.8807373629900001 0
0.98414844626 -0.8807373629900001 -0.0022060149078
0.95982161505 -0.8807373629900001 -0.0055219763305
0.92331020388 -0.8807373629900001 -0.01034480542
0.87030448965 -0.8807373629900001 -0.017030090029
0.79695803833 -0.8807373629900001 -0.025685101897
0.70192689193 -0.8807373629900001 -0.035851724287
0.5887637878 -0.8807373629900001 -0.046245564808
0.46678824105 -0.8807373629900001 -0.054824238287
0.34867161706 -0.8807373629900001 -0.059506928501
0.24565152047 -0.8807373629900001 -0.059293117796
0.16380190832 -0.8807373629900001 -0.05474724921
0.10361138312 -0.8807373629900001 -0.047424623209
0.062004804867 -0.8807373629900001 -0.038921434858
0.034701656177 -0.8807373629900001 -0.030355359608
0.017711394777 -0.8807373629900001 -0.02235290526
0.0078928270998 -0.8807373629900001 -0.015263251853
0.0028852305479 -0.8807373629900001 -0.0093840764449
0.00078807384983 -0.8807373629900001 -0.0049615619954
0.00011903597513 -0.8807373629900001 -0.0019435181458
0 -0.8807373629900001 0
0.00011903597513 -0.8807373629900001 0.0019435181458
0.00078807384983 -0.8807373629900001 0.0049615619954
0.0028852305479 -0.8807373629900001 0.0093840764449
0.0078928270998 -0.8807373629900001 0.015263251853
0.017711394777 -0.8807373629900001 0.02235290526
0.034701656177 -0.8807373629900001 0.030355359608
0.062004804867 -0.8807373629900001 0.038921434858
0.10361138312 -0.8807373629900001 0.047424623209
0.16380190832 -0.8807373629900001 0.05474724921
0.24565152047 -0.8807373629900001 0.059293117796
0.34867161706 -0.8807373629900001 0.059506928501
0.46678824105 -0.8807373629900001 0.054824238287
0.5887637878 -0.8807373629900001 0.046245564808
0.70192689193 -0.8807373629900001 0.035851724287
0.79695803833 -0.8807373629900001 0.025685101897
0.87030448965 -0.8807373629900001 0.017030090029
0.92331020388 -0.8807373629900001 0.01034480542
0.95982161505 -0.8807373629900001 0.0055219763305
0.98414844626 -0.8807373629900001 0.0022060149078
1 -1.428573408 0
0.98414844626 -1.428573408 -0.0022060149078
0.95982161505 -1.428573408 -0.0055219763305
0.92331020388 -1.428573408 -0.01034480542
0.87030448965 -1.428573408 -0.017030090029
0.79695803833 -1.428573408 -0.025685101897
0.70192689193 -1.428573408 -0.035851724287
0.5887637878 -1.428573408 -0.046245564808
0.46678824105 -1.428573408 -0.054824238287
0.34867161706 -1.428573408 -0.059506928501
0.24565152047 -1.428573408 -0.059293117796
0.16380190832 -1.428573408 -0.05474724921
0.10361138312 -1.428573408 -0.047424623209
0.062004804867 -1.428573408 -0.038921434858
0.034701656177 -1.428573408 -0.030355359608
0.017711394777 -1.428573408 -0.02235290526
0.0078928270998 -1.428573408 -0.015263251853
0.0028852305479 -1.428573408 -0.0093840764449
0.00078807384983 -1.428573408 -0.0049615619954
0.00011903597513 -1.428573408 -0.0019435181458
0 -1.428573408 0
0.00011903597513 -1.428573408 0.0019435181458
0.00078807384983 -1.428573408 0.0049615619954
0.0028852305479 -1.428573408 0.0093840764449
0.0078928270998 -1.428573408 0.015263251853
0.017711394777 -1.428573408 0.02235290526
0.034701656177 -1.428573408 0.030355359608
0.062004804867 -1.428573408 0.038921434858
0.10361138312 -1.428573408 0.047424623209
0.16380190832 -1.428573408 0.05474724921
0.24565152047 -1.428573408 0.059293117796
0.34867161706 -1.428573408 0.059506928501
0.46678824105 -1.428573408 0.054824238287
0.5887637878 -1.428573408 0.046245564808
0.70192689193 -1.428573408 0.035851724287
0.79695803833 -1.428573408 0.025685101897
0.87030448965 -1.428573408 0.017030090029
0.92331020388 -1.428573408 0.01034480542
0.95982161505 -1.428573408 0.0055219763305
0.98414844626 -1.428573408 0.0022060149078
1 -2.0133560182 0
0.98414844626 -2.0133560182 -0.0022060149078
0.95982161505 -2.0133560182 -0.0055219763305
0.92331020388 -2.0133560182 -0.01034480542
0.87030448965 -2.0133560182 -0.017030090029
0.79695803833 -2.0133560182 -0.025685101897
0.70192689193 -2.0133560182 -0.035851724287
0.5887637878 -2.0133560182 -0.046245564808
0.46678824105 -2.0133560182 -0.054824238287
0.34867161706 -2.0133560182 -0.059506928501
0.24565152047 -2.0133560182 -0.059293117796
0.16380190832 -2.0133560182 -0.05474724921
0.10361138312 -2.0133560182 -0.047424623209
0.062004804867 -2.0133560182 -0.038921434858
0.034701656177 -2.0133560182 -0.030355359608
0.017711394777 -2.0133560182 -0.02235290526
0.0078928270998 -2.0133560182 -0.015263251853
0.0028852305479 -2.0133560182 -0.0093840764449
0.00078807384983 -2.0133560182 -0.0049615619954
0.00011903597513 -2.0133560182 -0.0019435181458
0 -2.0133560182 0
0.00011903597513 -2.0133560182 0.0019435181458
0.00078807384983 -2.0133560182 0.0049615619954
0.0028852305479 -2.0133560182 0.0093840764449
0.0078928270998 -2.0133560182 0.015263251853
0.017711394777 -2.0133560182 0.02235290526
0.034701656177 -2.0133560182 0.030355359608
0.062004804867 -2.0133560182 0.038921434858
0.10361138312 -2.0133560182 0.047424623209
0.16380190832 -2.0133560182 0.05474724921
0.24565152047 -2.0133560182 0.059293117796
0.34867161706 -2.0133560182 0.059506928501
0.46678824105 -2.0133560182 0.054824238287
0.5887637878 -2.0133560182 0.046245564808
0.70192689193 -2.0133560182 0.035851724287
0.79695803833 -2.0133560182 0.025685101897
0.87030448965 -2.0133560182 0.017030090029
0.92331020388 -2.0133560182 0.01034480542
0.95982161505 -2.0133560182 0.0055219763305
0.98414844626 -2.0133560182 0.0022060149078
1 -2.5962556796 0
0.98414844626 -2.5962556796 -0.0022060149078
0.95982161505 -2.5962556796 -0.0055219763305
0.92331020388 -2.5962556796 -0.01034480542
0.87030448965 -2.5962556796 -0.017030090029
0.79695803833 -2.5962556796 -0.025685101897
0.70192689193 -2.5962556796 -0.035851724287
0.5887637878 -2.5962556796 -0.046245564808
0.46678824105 -2.5962556796 -0.054824238287
0.34867161706 -2.5962556796 -0.059506928501
0.24565152047 -2.5962556796 -0.059293117796
0.16380190832 -2.5962556796 -0.05474724921
0.10361138312 -2.5962556796 -0.047424623209
0.062004804867 -2.5962556796 -0.038921434858
0.034701656177 -2.5962556796 -0.030355359608
0.017711394777 -2.5962556796 -0.02235290526
0.0078928270998 -2.5962556796 -0.015263251853
0.0028852305479 -2.5962556796 -0.0093840764449
0.00078807384983 -2.5962556796 -0.0049615619954
0.00011903597513 -2.5962556796 -0.0019435181458
0 -2.5962556796 0
0.00011903597513 -2.5962556796 0.0019435181458
0.00078807384983 -2.5962556796 0.0049615619954
0.0028852305479 -2.5962556796 0.0093840764449
0.0078928270998 -2.5962556796 0.015263251853
0.017711394777 -2.5962556796 0.02235290526
0.034701656177 -2.5962556796 0.030355359608
0.062004804867 -2.5962556796 0.038921434858
0.10361138312 -2.5962556796 0.047424623209
0.16380190832 -2.5962556796 0.05474724921
0.24565152047 -2.5962556796 0.059293117796
0.34867161706 -2.5962556796 0.059506928501
0.46678824105 -2.5962556796 0.054824238287
0.5887637878 -2.5962556796 0.046245564808
0.70192689193 -2.5962556796 0.035851724287
0.79695803833 -2.5962556796 0.025685101897
0.87030448965 -2.5962556796 0.017030090029
0.92331020388 -2.5962556796 0.01034480542
0.95982161505 -2.5962556796 0.0055219763305
0.98414844626 -2.5962556796 0.0022060149078
1 -3.1389324637 0
0.98414844626 -3.1389324637 -0.0022060149078
0.95982161505 -3.1389324637 -0.0055219763305
0.92331020388 -3.1389324637 -0.01034480542
0.87030448965 -3.1389324637 -0.017030090029
0.79695803833 -3.1389324637 -0.025685101897
0.70192689193 -3.1389324637 -0.035851724287
0.5887637878 -3.1389324637 -0.046245564808
0.46678824105 -3.1389324637 -0.054824238287
0.34867161706 -3.1389324637 -0.059506928501
0.24565152047 -3.1389324637 -0.059293117796
0.16380190832 -3.1389324637 -0.05474724921
0.10361138312 -3.1389324637 -0.047424623209
0.062004804867 -3.1389324637 -0.038921434858
0.034701656177 -3.1389324637 -0.030355359608
0.017711394777 -3.1389324637 -0.02235290526
0.0078928270998 -3.1389324637 -0.015263251853
0.0028852305479 -3.1389324637 -0.0093840764449
0.00078807384983 -3.1389324637 -0.0049615619954
0.00011903597513 -3.1389324637 -0.0019435181458
0 -3.1389324637 0
0.00011903597513 -3.1389324637 0.0019435181458
0.00078807384983 -3.1389324637 0.0049615619954
0.0028852305479 -3.1389324637 0.0093840764449
0.0078928270998 -3.1389324637 0.015263251853
0.017711394777 -3.1389324637 0.02235290526
0.034701656177 -3.1389324637 0.030355359608
0.062004804867 -3.1389324637 0.038921434858
0.10361138312 -3.1389324637 0.047424623209
0.16380190832 -3.1389324637 0.05474724921
0.24565152047 -3.1389324637 0.059293117796
0.34867161706 -3.1389324637 0.059506928501
0.46678824105 -3.1389324637 0.054824238287
0.5887637878 -3.1389324637 0.046245564808
0.70192689193 -3.1389324637 0.035851724287
0.79695803833 -3.1389324637 0.025685101897
0.87030448965 -3.1389324637 0.017030090029
0.92331020388 -3.1389324637 0.01034480542
0.95982161505 -3.1389324637 0.0055219763305
0.98414844626 -3.1389324637 0.0022060149078
1 -3.6129769752 0
0.98414844626 -3.6129769752 -0.0022060149078
0.95982161505 -3.6129769752 -0.0055219763305
0.92331020388 -3.6129769752 -0.01034480542
0.87030448965 -3.6129769752 -0.017030090029
0.79695803833 -3.6129769752 -0.025685101897
0.70192689193 -3.6129769752 -0.035851724287
0.5887637878 -3.6129769752 -0.046245564808
0.46678824105 -3.6129769752 -0.054824238287
0.34867161706 -3.6129769752 -0.059506928501
0.24565152047 -3.6129769752 -0.059293117796
0.16380190832 -3.6129769752 -0.05474724921
0.10361138312 -3.6129769752 -0.047424623209
0.062004804867 -3.6129769752 -0.038921434858
0.034701656177 -3.6129769752 -0.030355359608
0.017711394777 -3.6129769752 -0.02235290526
0.0078928270998 -3.6129769752 -0.015263251853
0.0028852305479 -3.6129769752 -0.0093840764449
0.00078807384983 -3.6129769752 -0.0049615619954
0.00011903597513 -3.6129769752 -0.0019435181458
0 -3.6129769752 0
0.00011903597513 -3.6129769752 0.0019435181458
0.00078807384983 -3.6129769752 0.0049615619954
0.0028852305479 -3.6129769752 0.0093840764449
0.0078928270998 -3.6129769752 0.015263251853
0.017711394777 -3.6129769752 0.02235290526
0.034701656177 -3.6129769752 0.030355359608
0.062004804867 -3.6129769752 0.038921434858
0.10361138312 -3.6129769752 0.047424623209
0.16380190832 -3.6129769752 0.05474724921
0.24565152047 -3.6129769752 0.059293117796
0.34867161706 -3.6129769752 0.059506928501
0.46678824105 -3.6129769752 0.054824238287
0.5887637878 -3.6129769752 0.046245564808
0.70192689193 -3.6129769752 0.035851724287
0.79695803833 -3.6129769752 0.025685101897
0.87030448965 -3.6129769752 0.017030090029
0.92331020388 -3.6129769752 0.01034480542
0.95982161505 -3.6129769752 0.0055219763305
0.98414844626 -3.6129769752 0.0022060149078
1 -4.00456641 0
0.98414844626 -4.00456641 -0.0022060149078
0.95982161505 -4.00456641 -0.0055219763305
0.92331020388 -4.00456641 -0.01034480542
0.87030448965 -4.00456641 -0.017030090029
0.79695803833 -4.00456641 -0.025685101897
0.70192689193 -4.00456641 -0.035851724287
0.5887637878 -4.00456641 -0.046245564808
0.46678824105 -4.00456641 -0.054824238287
0.34867161706 -4.00456641 -0.059506928501
0.24565152047 -4.00456641 -0.059293117796
0.16380190832 -4.00456641 -0.05474724921
0.10361138312 -4.00456641 -0.047424623209
0.062004804867 -4.00456641 -0.038921434858
0.034701656177 -4.00456641 -0.030355359608
0.017711394777 -4.00456641 -0.02235290526
0.0078928270998 -4.00456641 -0.015263251853
0.0028852305479 -4.00456641 -0.0093840764449
0.00078807384983 -4.00456641 -0.0049615619954
0.00011903597513 -4.00456641 -0.0019435181458
0 -4.00456641 0
0.00011903597513 -4.00456641 0.0019435181458
0.00078807384983 -4.00456641 0.0049615619954
0.0028852305479 -4.00456641 0.0093840764449
0.0078928270998 -4.00456641 0.015263251853
0.017711394777 -4.00456641 0.02235290526
0.034701656177 -4.00456641 0.030355359608
0.062004804867 -4.00456641 0.038921434858
0.10361138312 -4.00456641 0.047424623209
0.16380190832 -4.00456641 0.05474724921
0.24565152047 -4.00456641 0.059293117796
0.34867161706 -4.00456641 0.059506928501
0.46678824105 -4.00456641 0.054824238287
0.5887637878 -4.00456641 0.046245564808
0.70192689193 -4.00456641 0.035851724287
0.79695803833 -4.00456641 0.025685101897
0.87030448965 -4.00456641 0.017030090029
0.92331020388 -4.00456641 0.01034480542
0.95982161505 -4.00456641 0.0055219763305
0.98414844626 -4.00456641 0.0022060149078
1 -4.3133835291 0
0.98414844626 -4.3133835291 -0.0022060149078
0.95982161505 -4.3133835291 -0.0055219763305
0.92331020388 -4.3133835291 -0.01034480542
0.87030448965 -4.3133835291 -0.017030090029
0.79695803833 -4.3133835291 -0.025685101897
0.70192689193 -4.3133835291 -0.035851724287
0.5887637878 -4.3133835291 -0.046245564808
0.46678824105 -4.3133835291 -0.054824238287
0.34867161706 -4.3133835291 -0.059506928501
0.24565152047 -4.3133835291 -0.059293117796
0.16380190832 -4.3133835291 -0.05474724921
0.10361138312 -4.3133835291 -0.047424623209
0.062004804867 -4.3133835291 -0.038921434858
0.034701656177 -4.3133835291 -0.030355359608
0.017711394777 -4.3133835291 -0.02235290526
0.0078928270998 -4.3133835291 -0.015263251853
0.0028852305479 -4.3133835291 -0.0093840764449
0.00078807384983 -4.3133835291 -0.0049615619954
0.00011903597513 -4.3133835291 -0.0019435181458
0 -4.3133835291 0
0.00011903597513 -4.3133835291 0.0019435181458
0.00078807384983 -4.3133835291 0.0049615619954
0.0028852305479 -4.3133835291 0.0093840764449
0.0078928270998 -4.3133835291 0.015263251853
0.017711394777 -4.3133835291 0.02235290526
0.034701656177 -4.3133835291 0.030355359608
0.062004804867 -4.3133835291 0.038921434858
0.10361138312 -4.3133835291 0.047424623209
0.16380190832 -4.3133835291 0.05474724921
0.24565152047 -4.3133835291 0.059293117796
0.34867161706 -4.3133835291 0.059506928501
0.46678824105 -4.3133835291 0.054824238287
0.5887637878 -4.3133835291 0.046245564808
0.70192689193 -4.3133835291 0.035851724287
0.79695803833 -4.3133835291 0.025685101897
0.87030448965 -4.3133835291 0.017030090029
0.92331020388 -4.3133835291 0.01034480542
0.95982161505 -4.3133835291 0.0055219763305
0.98414844626 -4.3133835291 0.0022060149078
1 -4.5481362137 0
0.98414844626 -4.5481362137 -0.0022060149078
0.95982161505 -4.5481362137 -0.0055219763305
0.92331020388 -4.5481362137 -0.01034480542
0.87030448965 -4.5481362137 -0.017030090029
0.79695803833 -4.5481362137 -0.025685101897
0.70192689193 -4.5481362137 -0.035851724287
0.5887637878 -4.5481362137 -0.046245564808
0.46678824105 -4.5481362137 -0.054824238287
0.34867161706 -4.5481362137 -0.059506928501
0.24565152047 -4.5481362137 -0.059293117796
0.16380190832 -4.5481362137 -0.05474724921
0.10361138312 -4.5481362137 -0.047424623209
0.062004804867 -4.5481362137 -0.038921434858
0.034701656177 -4.5481362137 -0.030355359608
0.017711394777 -4.5481362137 -0.02235290526
0.0078928270998 -4.5481362137 -0.015263251853
0.0028852305479 -4.5481362137 -0.0093840764449
0.00078807384983 -4.5481362137 -0.0049615619954
0.00011903597513 -4.5481362137 -0.0019435181458
0 -4.5481362137 0
0.00011903597513 -4.5481362137 0.0019435181458
0.00078807384983 -4.5481362137 0.0049615619954
0.0028852305479 -4.5481362137 0.0093840764449
0.0078928270998 -4.5481362137 0.015263251853
0.017711394777 -4.5481362137 0.02235290526
0.034701656177 -4.5481362137 0.030355359608
0.062004804867 -4.5481362137 0.038921434858
0.10361138312 -4.5481362137 0.047424623209
0.16380190832 -4.5481362137 0.05474724921
0.24565152047 -4.5481362137 0.059293117796
0.34867161706 -4.5481362137 0.059506928501
0.46678824105 -4.5481362137 0.054824238287
0.5887637878 -4.5481362137 0.046245564808
0.70192689193 -4.5481362137 0.035851724287
0.79695803833 -4.5481362137 0.025685101897
0.87030448965 -4.5481362137 0.017030090029
0.92331020388 -4.5481362137 0.01034480542
0.95982161505 -4.5481362137 0.0055219763305
0.98414844626 -4.5481362137 0.0022060149078
1 -4.7216497867 0
0.98414844626 -4.7216497867 -0.0022060149078
0.95982161505 -4.7216497867 -0.0055219763305
0.92331020388 -4.7216497867 -0.01034480542
0.87030448965 -4.7216497867 -0.017030090029
0.79695803833 -4.7216497867 -0.025685101897
0.70192689193 -4.7216497867 -0.035851724287
0.5887637878 -4.7216497867 -0.046245564808
0.46678824105 -4.7216497867 -0.054824238287
0.34867161706 -4.7216497867 -0.059506928501
0.24565152047 -4.7216497867 -0.059293117796
0.16380190832 -4.7216497867 -0.05474724921
0.10361138312 -4.7216497867 -0.047424623209
0.062004804867 -4.7216497867 -0.038921434858
0.034701656177 -4.7216497867 -0.030355359608
0.017711394777 -4.7216497867 -0.02235290526
0.0078928270998 -4.7216497867 -0.015263251853
0.0028852305479 -4.7216497867 -0.0093840764449
0.00078807384983 -4.7216497867 -0.0049615619954
0.00011903597513 -4.7216497867 -0.0019435181458
0 -4.7216497867 0
0.00011903597513 -4.7216497867 0.0019435181458
0.00078807384983 -4.7216497867 0.0049615619954
0.0028852305479 -4.7216497867 0.0093840764449
0.0078928270998 -4.7216497867 0.015263251853
0.017711394777 -4.7216497867 0.02235290526
0.034701656177 -4.7216497867 0.030355359608
0.062004804867 -4.7216497867 0.038921434858
0.10361138312 -4.7216497867 0.047424623209
0.16380190832 -4.7216497867 0.05474724921
0.24565152047 -4.7216497867 0.059293117796
0.34867161706 -4.7216497867 0.059506928501
0.46678824105 -4.7216497867 0.054824238287
0.5887637878 -4.7216497867 0.046245564808
0.70192689193 -4.7216497867 0.035851724287
0.79695803833 -4.7216497867 0.025685101897
0.87030448965 -4.7216497867 0.017030090029
0.92331020388 -4.7216497867 0.01034480542
0.95982161505 -4.7216497867 0.0055219763305
0.98414844626 -4.7216497867 0.0022060149078
1 -4.8472574701 0
0.98414844626 -4.8472574701 -0.0022060149078
0.95982161505 -4.8472574701 -0.0055219763305
0.92331020388 -4.8472574701 -0.01034480542
0.87030448965 -4.8472574701 -0.017030090029
0.79695803833 -4.8472574701 -0.025685101897
0.70192689193 -4.8472574701 -0.035851724287
0.5887637878 -4.8472574701 -0.046245564808
0.46678824105 -4.8472574701 -0.054824238287
0.34867161706 -4.8472574701 -0.059506928501
0.24565152047 -4.8472574701 -0.059293117796
0.16380190832 -4.8472574701 -0.05474724921
0.10361138312 -4.8472574701 -0.047424623209
0.062004804867 -4.8472574701 -0.038921434858
0.034701656177 -4.8472574701 -0.030355359608
0.017711394777 -4.8472574701 -0.02235290526
0.0078928270998 -4.8472574701 -0.015263251853
0.0028852305479 -4.8472574701 -0.0093840764449
0.00078807384983 -4.8472574701 -0.0049615619954
0.00011903597513 -4.8472574701 -0.0019435181458
0 -4.8472574701 0
0.00011903597513 -4.8472574701 0.0019435181458
0.00078807384983 -4.8472574701 0.0049615619954
0.0028852305479 -4.8472574701 0.0093840764449
0.0078928270998 -4.8472574701 0.015263251853
0.017711394777 -4.8472574701 0.02235290526
0.034701656177 -4.8472574701 0.030355359608
0.062004804867 -4.8472574701 0.038921434858
0.10361138312 -4.8472574701 0.047424623209
0.16380190832 -4.8472574701 0.05474724921
0.24565152047 -4.8472574701 0.059293117796
0.34867161706 -4.8472574701 0.059506928501
0.46678824105 -4.8472574701 0.054824238287
0.5887637878 -4.8472574701 0.046245564808
0.70192689193 -4.8472574701 0.035851724287
0.79695803833 -4.8472574701 0.025685101897
0.87030448965 -4.8472574701 0.017030090029
0.92331020388 -4.8472574701 0.01034480542
0.95982161505 -4.8472574701 0.0055219763305
0.98414844626 -4.8472574701 0.0022060149078
1 -4.9368219891 0
0.98414844626 -4.9368219891 -0.0022060149078
0.95982161505 -4.9368219891 -0.0055219763305
0.92331020388 -4.9368219891 -0.01034480542
0.87030448965 -4.9368219891 -0.017030090029
0.79695803833 -4.9368219891 -0.025685101897
0.70192689193 -4.9368219891 -0.035851724287
0.5887637878 -4.9368219891 -0.046245564808
0.46678824105 -4.9368219891 -0.054824238287
0.34867161706 -4.9368219891 -0.059506928501
0.24565152047 -4.9368219891 -0.059293117796
0.16380190832 -4.9368219891 -0.05474724921
0.10361138312 -4.9368219891 -0.047424623209
0.062004804867 -4.9368219891 -0.038921434858
0.034701656177 -4.9368219891 -0.030355359608
0.017711394777 -4.9368219891 -0.02235290526
0.0078928270998 -4.9368219891 -0.015263251853
0.0028852305479 -4.9368219891 -0.0093840764449
0.00078807384983 -4.9368219891 -0.0049615619954
0.00011903597513 -4.9368219891 -0.0019435181458
0 -4.9368219891 0
0.00011903597513 -4.9368219891 0.0019435181458
0.00078807384983 -4.9368219891 0.0049615619954
0.0028852305479 -4.9368219891 0.0093840764449
0.0078928270998 -4.9368219891 0.015263251853
0.017711394777 -4.9368219891 0.02235290526
0.034701656177 -4.9368219891 0.030355359608
0.062004804867 -4.9368219891 0.038921434858
0.10361138312 -4.9368219891 0.047424623209
0.16380190832 -4.9368219891 0.05474724921
0.24565152047 -4.9368219891 0.059293117796
0.34867161706 -4.9368219891 0.059506928501
0.46678824105 -4.9368219891 0.054824238287
0.5887637878 -4.9368219891 0.046245564808
0.70192689193 -4.9368219891 0.035851724287
0.79695803833 -4.9368219891 0.025685101897
0.87030448965 -4.9368219891 0.017030090029
0.92331020388 -4.9368219891 0.01034480542
0.95982161505 -4.9368219891 0.0055219763305
0.98414844626 -4.9368219891 0.0022060149078
1 -5 0
0.98414844626 -5 -0.0022060149078
0.95982161505 -5 -0.0055219763305
0.92331020388 -5 -0.01034480542
0.87030448965 -5 -0.017030090029
0.79695803833 -5 -0.025685101897
0.70192689193 -5 -0.035851724287
0.5887637878 -5 -0.046245564808
0.46678824105 -5 -0.054824238287
0.34867161706 -5 -0.059506928501
0.24565152047 -5 -0.059293117796
0.16380190832 -5 -0.05474724921
0.10361138312 -5 -0.047424623209
0.062004804867 -5 -0.038921434858
0.034701656177 -5 -0.030355359608
0.017711394777 -5 -0.02235290526
0.0078928270998 -5 -0.015263251853
0.0028852305479 -5 -0.0093840764449
0.00078807384983 -5 -0.0049615619954
0.00011903597513 -5 -0.0019435181458
0 -5 0
0.00011903597513 -5 0.0019435181458
0.00078807384983 -5 0.0049615619954
0.0028852305479 -5 0.0093840764449
0.0078928270998 -5 0.015263251853
0.017711394777 -5 0.02235290526
0.034701656177 -5 0.030355359608
0.062004804867 -5 0.038921434858
0.10361138312 -5 0.047424623209
0.16380190832 -5 0.05474724921
0.24565152047 -5 0.059293117796
0.34867161706 -5 0.059506928501
0.46678824105 -5 0.054824238287
0.5887637878 -5 0.046245564808
0.70192689193 -5 0.035851724287
0.79695803833 -5 0.025685101897
0.87030448965 -5 0.017030090029
0.92331020388 -5 0.01034480542
0.95982161505 -5 0.0055219763305
0.98414844626 -5 0.0022060149078
0.98414844626 -5.0015595822 -0.0015595822433
0.95982161505 -5.0039038613 -0.0039038613034
0.92331020388 -5.0073134478 -0.0073134477866
0.87030448965 -5.012039731 -0.012039730973
0.79695803833 -5.0181585486 -0.018158548564
0.70192689193 -5.0253460266 -0.025346026627
0.5887637878 -5.0326941407 -0.032694140666
0.46678824105 -5.0387589895 -0.03875898945
0.34867161706 -5.0420695022 -0.042069502213
0.24565152047 -5.0419183449 -0.041918344858
0.16380190832 -5.0387045606 -0.038704560626
0.10361138312 -5.0335276974 -0.033527697384
0.062004804867 -5.0275162142 -0.027516214182
0.034701656177 -5.0214602719 -0.021460271945
0.017711394777 -5.0158027917 -0.015802791725
0.0078928270998 -5.0107906327 -0.010790632684
0.0028852305479 -5.006634243 -0.0066342430153
0.00078807384983 -5.0035076662 -0.0035076662265
0.00011903597513 -5.0013740054 -0.0013740053973
0.00011903597513 -5.0013740054 0.0013740053973
0.00078807384983 -5.0035076662 0.0035076662265
0.0028852305479 -5.006634243 0.0066342430153
0.0078928270998 -5.0107906327 0.010790632684
0.017711394777 -5.0158027917 0.015802791725
0.034701656177 -5.0214602719 0.021460271945
0.062004804867 -5.0275162142 0.027516214182
0.10361138312 -5.0335276974 0.033527697384
0.16380190832 -5.0387045606 0.038704560626
0.24565152047 -5.0419183449 0.041918344858
0.34867161706 -5.0420695022 0.042069502213
0.46678824105 -5.0387589895 0.03875898945
0.5887637878 -5.0326941407 0.032694140666
0.70192689193 -5.0253460266 0.025346026627
0.79695803833 -5.0181585486 0.018158548564
0.87030448965 -5.012039731 0.012039730973
0.92331020388 -5.0073134478 0.0073134477866
0.95982161505 -5.0039038613 0.0039038613034
0.98414844626 -5.0015595822 0.0015595822433
0.98414844626 -5.0022060149 1.7732979302e-16
0.95982161505 -5.0055219763 2.7371488147e-16
0.92331020388 -5.0103448054 1.7573233632e-16
0.87030448965 -5.01703009 8.7465325499e-18
0.79695803833 -5.0256851019 -1.1740512272e-17
0.70192689193 -5.0358517243 -4.8717105359e-17
0.5887637878 -5.0462455648 -2.7305176084e-17
0.46678824105 -5.0548242383 -2.7072930296e-17
0.34867161706 -5.0595069285 -1.5575177618e-18
0.24565152047 -5.0592931178 3.9031521459e-18
0.16380190832 -5.0547472492 3.9725624186e-17
0.10361138312 -5.0474246232 3.9445557956e-17
0.062004804867 -5.0389214349 9.0585984971e-17
0.034701656177 -5.0303553596 7.803553300799999e-17
0.017711394777 -5.0223529053 9.0731047562e-17
0.0078928270998 -5.0152632519 1.5502098987e-16
0.0028852305479 -5.0093840764 2.3811738457e-16
0.00078807384983 -5.004961562 -6.993597499800001e-18
0.00011903597513 -5.0019435181 -6.5551522647e-17
$EndNodes
$Elements
1 1272 1 1272
2 1 3 1272
1 3 1 4 2 
2 2 4 6 5 
3 5 6 8 7 
4 7 8 10 9 
5 9 10 12 11 
6 11 12 14 13 
7 13 14 16 15 
8 15 16 18 17 
9 18 19 20 17 
10 19 21 22 20 
11 21 23 24 22 
12 23 25 26 24 
13 25 27 28 26 
14 27 29 30 28 
15 29 31 32 30 
16 31 33 34 32 
17 33 35 36 34 
18 35 37 38 36 
19 37 39 40 38 
20 39 41 42 40 
21 42 41 44 43 
22 43 44 46 45 
23 45 46 48 47 
24 47 48 50 49 
25 49 50 52 51 
26 51 52 54 53 
27 53 54 56 55 
28 55 56 58 57 
29 57 58 60 59 
30 59 60 62 61 
31 61 62 64 63 
32 63 64 66 65 
33 66 67 68 65 
34 67 69 70 68 
35 69 71 72 70 
36 71 73 74 72 
37 73 75 76 74 
38 75 77 78 76 
39 77 79 80 78 
40 79 1 3 80 
41 82 3 2 81 
42 81 2 5 83 
43 83 5 7 84 
44 84 7 9 85 
45 85 9 11 86 
46 86 11 13 87 
47 87 13 15 88 
48 88 15 17 89 
49 17 20 90 89 
50 20 22 91 90 
51 22 24 92 91 
52 24 26 93 92 
53 26 28 94 93 
54 28 30 95 94 
55 30 32 96 95 
56 32 34 97 96 
57 34 36 98 97 
58 36 38 99 98 
59 38 40 100 99 
60 40 42 101 100 
61 101 42 43 102 
62 102 43 45 103 
63 103 45 47 104 
64 104 47 49 105 
65 105 49 51 106 
66 106 51 53 107 
67 107 53 55 108 
68 108 55 57 109 
69 109 57 59 110 
70 110 59 61 111 
71 111 61 63 112 
72 112 63 65 113 
73 65 68 114 113 
74 68 70 115 114 
75 70 72 116 115 
76 72 74 117 116 
77 74 76 118 117 
78 76 78 119 118 
79 78 80 120 119 
80 80 3 82 120 
81 122 82 81 121 
82 121 81 83 123 
83 123 83 84 124 
84 124 84 85 125 
85 125 85 86 126 
86 126 86 87 127 
87 127 87 88 128 
88 128 88 89 129 
89 89 90 130 129 
90 90 91 131 130 
91 91 92 132 131 
92 92 93 133 132 
93 93 94 134 133 
94 94 95 135 134 
95 95 96 136 135 
96 96 97 137 136 
97 97 98 138 137 
98 98 99 139 138 
99 99 100 140 139 
100 100 101 141 140 
101 141 101 102 142 
102 142 102 103 143 
103 143 103 104 144 
104 144 104 105 145 
105 145 105 106 146 
106 146 106 107 147 
107 147 107 108 148 
108 148 108 109 149 
109 149 109 110 150 
110 150 110 111 151 
111 151 111 112 152 
112 152 112 113 153 
113 113 114 154 153 
114 114 115 155 154 
115 115 116 156 155 
116 116 117 157 156 
117 117 118 158 157 
118 118 119 159 158 
119 119 120 160 159 
120 120 82 122 160 
121 162 122 121 161 
122 161 121 123 163 
123 163 123 124 164 
124 164 124 125 165 
125 165 125 126 166 
126 166 126 127 167 
127 167 127 128 168 
128 168 128 129 169 
129 129 130 170 169 
130 130 131 171 170 
131 131 132 172 171 
132 132 133 173 172 
133 133 134 174 173 
134 134 135 175 174 
135 135 136 176 175 
136 136 137 177 176 
137 137 138 178 177 
138 138 139 179 178 
139 139 140 180 179 
140 140 141 181 180 
141 181 141 142 182 
142 182 142 143 183 
143 183 143 144 184 
144 184 144 145 185 
145 185 145 146 186 
146 186 146 147 187 
147 187 147 148 188 
148 188 148 149 189 
149 189 149 150 190 
150 190 150 151 191 
151 191 151 152 192 
152 192 152 153 193 
153 153 154 194 193 
154 154 155 195 194 
155 155 156 196 195 
156 156 157 197 196 
157 157 158 198 197 
158 158 159 199 198 
159 159 160 200 199 
160 160 122 162 200 
161 202 162 161 201 
162 201 161 163 203 
163 203 163 164 204 
164 204 164 165 205 
165 205 165 166 206 
166 206 166 167 207 
167 207 167 168 208 
168 208 168 169 209 
169 169 170 210 209 
170 170 171 211 210 
171 171 172 212 211 
172 172 173 213 212 
173 173 174 214 213 
174 174 175 215 214 
175 175 176 216 215 
176 176 177 217 216 
177 177 178 218 217 
178 178 179 219 218 
179 179 180 220 219 
180 180 181 221 220 
181 221 181 182 222 
182 222 182 183 223 
183 223 183 184 224 
184 224 184 185 225 
185 225 185 186 226 
186 226 186 187 227 
187 227 187 188 228 
188 228 188 189 229 
189 229 189 190 230 
190 230 190 191 231 
191 231 191 192 232 
192 232 192 193 233 
193 193 194 234 233 
194 194 195 235 234 
195 195 196 236 235 
196 196 197 237 236 
197 197 198 238 237 
198 198 199 239 238 
199 199 200 240 239 
200 200 162 202 240 
201 242 202 201 241 
202 241 201 203 243 
203 243 203 204 244 
204 244 204 205 245 
205 245 205 206 246 
206 246 206 207 247 
207 247 207 208 248 
208 248 208 209 249 
209 209 210 250 249 
210 210 211 251 250 
211 211 212 252 251 
212 212 213 253 252 
213 213 214 254 253 
214 214 215 255 254 
215 215 216 256 255 
216 216 217 257 256 
217 217 218 258 257 
218 218 219 259 258 
219 219 220 260 259 
220 220 221 261 260 
221 261 221 222 262 
222 262 222 223 263 
223 263 223 224 264 
224 264 224 225 265 
225 265 225 226 266 
226 266 226 227 267 
227 267 227 228 268 
228 268 228 229 269 
229 269 229 230 270 
230 270 230 231 271 
231 271 231 232 272 
232 272 232 233 273 
233 233 234 274 273 
234 234 235 275 274 
235 235 236 276 275 
236 236 237 277 276 
237 237 238 278 277 
238 238 239 279 278 
239 239 240 280 279 
240 240 202 242 280 
241 282 242 241 281 
242 281 241 243 283 
243 283 243 244 284 
244 284 244 245 285 
245 285 245 246 286 
246 286 246 247 287 
247 287 247 248 288 
248 288 248 249 289 
249 249 250 290 289 
250 250 251 291 290 
251 251 252 292 291 
252 252 253 293 292 
253 253 254 294 293 
254 254 255 295 294 
255 255 256 296 295 
256 256 257 297 296 
257 257 258 298 297 
258 258 259 299 298 
259 259 260 300 299 
260 260 261 301 300 
261 301 261 262 302 
262 302 262 263 303 
263 303 263 264 304 
264 304 264 265 305 
265 305 265 266 306 
266 306 266 267 307 
267 307 267 268 308 
268 308 268 269 309 
269 309 269 270 310 
270 310 270 271 311 
271 311 271 272 312 
272 312 272 273 313 
273 273 274 314 313 
274 274 275 315 314 
275 275 276 316 315 
276 276 277 317 316 
277 277 278 318 317 
278 278 279 319 318 
279 279 280 320 319 
280 280 242 282 320 
281 322 282 281 321 
282 321 281 283 323 
283 323 283 284 324 
284 324 284 285 325 
285 325 285 286 326 
286 326 286 287 327 
287 327 287 288 328 
288 328 288 289 329 
289 289 290 330 329 
290 290 291 331 330 
291 291 292 332 331 
292 292 293 333 332 
293 293 294 334 333 
294 294 295 335 334 
295 295 296 336 335 
296 296 297 337 336 
297 297 298 338 337 
298 298 299 339 338 
299 299 300 340 339 
300 300 301 341 340 
301 341 301 302 342 
302 342 302 303 343 
303 343 303 304 344 
304 344 304 305 345 
305 345 305 306 346 
306 346 306 307 347 
307 347 307 308 348 
308 348 308 309 349 
309 349 309 310 350 
310 350 310 311 351 
311 351 311 312 352 
312 352 312 313 353 
313 313 314 354 353 
314 314 315 355 354 
315 315 316 356 355 
316 316 317 357 356 
317 317 318 358 357 
318 318 319 359 358 
319 319 320 360 359 
320 320 282 322 360 
321 362 322 321 361 
322 361 321 323 363 
323 363 323 324 364 
324 364 324 325 365 
325 365 325 326 366 
326 366 326 327 367 
327 367 327 328 368 
328 368 328 329 369 
329 329 330 370 369 
330 330 331 371 370 
331 331 332 372 371 
332 332 333 373 372 
333 333 334 374 373 
334 334 335 375 374 
335 335 336 376 375 
336 336 337 377 376 
337 337 338 378 377 
338 338 339 379 378 
339 339 340 380 379 
340 340 341 381 380 
341 381 341 342 382 
342 382 342 343 383 
343 383 343 344 384 
344 384 344 345 385 
345 385 345 346 386 
346 386 346 347 387 
347 387 347 348 388 
348 388 348 349 389 
349 389 349 350 390 
350 390 350 351 391 
351 391 351 352 392 
352 392 352 353 393 
353 353 354 394 393 
354 354 355 395 394 
355 355 356 396 395 
356 356 357 397 396 
357 357 358 398 397 
358 358 359 399 398 
359 359 360 400 399 
360 360 322 362 400 
361 402 362 361 401 
362 401 361 363 403 
363 403 363 364 404 
364 404 364 365 405 
365 405 365 366 406 
366 406 366 367 407 
367 407 367 368 408 
368 408 368 369 409 
369 369 370 410 409 
370 370 371 411 410 
371 371 372 412 411 
372 372 373 413 412 
373 373 374 414 413 
374 374 375 415 414 
375 375 376 416 415 
376 376 377 417 416 
377 377 378 418 417 
378 378 379 419 418 
379 379 380 420 419 
380 380 381 421 420 
381 421 381 382 422 
382 422 382 383 423 
383 423 383 384 424 
384 424 384 385 425 
385 425 385 386 426 
386 426 386 387 427 
387 427 387 388 428 
388 428 388 389 429 
389 429 389 390 430 
390 430 390 391 431 
391 431 391 392 432 
392 432 392 393 433 
393 393 394 434 433 
394 394 395 435 434 
395 395 396 436 435 
396 396 397 437 436 
397 397 398 438 437 
398 398 399 439 438 
399 399 400 440 439 
400 400 362 402 440 
401 442 402 401 441 
402 441 401 403 443 
403 443 403 404 444 
404 444 404 405 445 
405 445 405 406 446 
406 446 406 407 447 
407 447 407 408 448 
408 448 408 409 449 
409 409 410 450 449 
410 410 411 451 450 
411 411 412 452 451 
412 412 413 453 452 
413 413 414 454 453 
414 414 415 455 454 
415 415 416 456 455 
416 416 417 457 456 
417 417 418 458 457 
418 418 419 459 458 
419 419 420 460 459 
420 420 421 461 460 
421 461 421 422 462 
422 462 422 423 463 
423 463 423 424 464 
424 464 424 425 465 
425 465 425 426 466 
426 466 426 427 467 
427 467 427 428 468 
428 468 428 429 469 
429 469 429 430 470 
430 470 430 431 471 
431 471 431 432 472 
432 472 432 433 473 
433 433 434 474 473 
434 434 435 475 474 
435 435 436 476 475 
436 436 437 477 476 
437 437 438 478 477 
438 438 439 479 478 
439 439 440 480 479 
440 440 402 442 480 
441 482 442 441 481 
442 481 441 443 483 
443 483 443 444 484 
444 484 444 445 485 
445 485 445 446 486 
446 486 446 447 487 
447 487 447 448 488 
448 488 448 449 489 
449 449 450 490 489 
450 450 451 491 490 
451 451 452 492 491 
452 452 453 493 492 
453 453 454 494 493 
454 454 455 495 494 
455 455 456 496 495 
456 456 457 497 496 
457 457 458 498 497 
458 458 459 499 498 
459 459 460 500 499 
460 460 461 501 500 
461 501 461 462 502 
462 502 462 463 503 
463 503 463 464 504 
464 504 464 465 505 
465 505 465 466 506 
466 506 466 467 507 
467 507 467 468 508 
468 508 468 469 509 
469 509 469 470 510 
470 510 470 471 511 
471 511 471 472 512 
472 512 472 473 513 
473 473 474 514 513 
474 474 475 515 514 
475 475 476 516 515 
476 476 477 517 516 
477 477 478 518 517 
478 478 479 519 518 
479 479 480 520 519 
480 480 442 482 520 
481 522 482 481 521 
482 521 481 483 523 
483 523 483 484 524 
484 524 484 485 525 
485 525 485 486 526 
486 526 486 487 527 
487 527 487 488 528 
488 528 488 489 529 
489 489 490 530 529 
490 490 491 531 530 
491 491 492 532 531 
492 492 493 533 532 
493 493 494 534 533 
494 494 495 535 534 
495 495 496 536 535 
496 496 497 537 536 
497 497 498 538 537 
498 498 499 539 538 
499 499 500 540 539 
500 500 501 541 540 
501 541 501 502 542 
502 542 502 503 543 
503 543 503 504 544 
504 544 504 505 545 
505 545 505 506 546 
506 546 506 507 547 
507 547 507 508 548 
508 548 508 509 549 
509 549 509 510 550 
510 550 510 511 551 
511 551 511 512 552 
512 552 512 513 553 
513 513 514 554 553 
514 514 515 555 554 
515 515 516 556 555 
516 516 517 557 556 
517 517 518 558 557 
518 518 519 559 558 
519 519 520 560 559 
520 520 482 522 560 
521 562 522 521 561 
522 561 521 523 563 
523 563 523 524 564 
524 564 524 525 565 
525 565 525 526 566 
526 566 526 527 567 
527 567 527 528 568 
528 568 528 529 569 
529 529 530 570 569 
530 530 531 571 570 
531 531 532 572 571 
532 532 533 573 572 
533 533 534 574 573 
534 534 535 575 574 
535 535 536 576 575 
536 536 537 577 576 
537 537 538 578 577 
538 538 539 579 578 
539 539 540 580 579 
540 540 541 581 580 
541 581 541 542 582 
542 582 542 543 583 
543 583 543 544 584 
544 584 544 545 585 
545 585 545 546 586 
546 586 546 547 587 
547 587 547 548 588 
548 588 548 549 589 
549 589 549 550 590 
550 590 550 551 591 
551 591 551 552 592 
552 592 552 553 593 
553 553 554 594 593 
554 554 555 595 594 
555 555 556 596 595 
556 556 557 597 596 
557 557 558 598 597 
558 558 559 599 598 
559 559 560 600 599 
560 560 522 562 600 
561 601 561 563 602 
562 602 563 564 603 
563 603 564 565 604 
564 604 565 566 605 
565 605 566 567 606 
566 606 567 568 607 
567 607 568 569 608 
568 569 570 609 608 
569 570 571 610 609 
570 571 572 611 610 
571 572 573 612 611 
572 573 574 613 612 
573 574 575 614 613 
574 575 576 615 614 
575 576 577 616 615 
576 577 578 617 616 
577 578 579 618 617 
578 579 580 619 618 
579 620 582 583 621 
580 621 583 584 622 
581 622 584 585 623 
582 623 585 586 624 
583 624 586 587 625 
584 625 587 588 626 
585 626 588 589 627 
586 627 589 590 628 
587 628 590 591 629 
588 629 591 592 630 
589 630 592 593 631 
590 593 594 632 631 
591 594 595 633 632 
592 595 596 634 633 
593 596 597 635 634 
594 597 598 636 635 
595 598 599 637 636 
596 599 600 638 637 
597 561 601 639 562 
598 639 601 602 640 
599 640 602 603 641 
600 641 603 604 642 
601 642 604 605 643 
602 643 605 606 644 
603 644 606 607 645 
604 645 607 608 646 
605 608 609 647 646 
606 609 610 648 647 
607 610 611 649 648 
608 611 612 650 649 
609 612 613 651 650 
610 613 614 652 651 
611 614 615 653 652 
612 615 616 654 653 
613 616 617 655 654 
614 617 618 656 655 
615 618 619 657 656 
616 580 581 657 619 
617 582 620 657 581 
618 657 620 621 656 
619 656 621 622 655 
620 655 622 623 654 
621 654 623 624 653 
622 653 624 625 652 
623 652 625 626 651 
624 651 626 627 650 
625 650 627 628 649 
626 649 628 629 648 
627 648 629 630 647 
628 647 630 631 646 
629 631 632 645 646 
630 632 633 644 645 
631 633 634 643 644 
632 634 635 642 643 
633 635 636 641 642 
634 636 637 640 641 
635 637 638 639 640 
636 600 562 639 638 
637 658 659 4 1 
638 659 660 6 4 
639 660 661 8 6 
640 661 662 10 8 
641 662 663 12 10 
642 663 664 14 12 
643 664 665 16 14 
644 665 666 18 16 
645 18 666 667 19 
646 19 667 668 21 
647 21 668 669 23 
648 23 669 670 25 
649 25 670 671 27 
650 27 671 672 29 
651 29 672 673 31 
652 31 673 674 33 
653 33 674 675 35 
654 35 675 676 37 
655 37 676 677 39 
656 39 677 678 41 
657 678 679 44 41 
658 679 680 46 44 
659 680 681 48 46 
660 681 682 50 48 
661 682 683 52 50 
662 683 684 54 52 
663 684 685 56 54 
664 685 686 58 56 
665 686 687 60 58 
666 687 688 62 60 
667 688 689 64 62 
668 689 690 66 64 
669 66 690 691 67 
670 67 691 692 69 
671 69 692 693 71 
672 71 693 694 73 
673 73 694 695 75 
674 75 695 696 77 
675 77 696 697 79 
676 79 697 658 1 
677 698 699 659 658 
678 699 700 660 659 
679 700 701 661 660 
680 701 702 662 661 
681 702 703 663 662 
682 703 704 664 663 
683 704 705 665 664 
684 705 706 666 665 
685 666 706 707 667 
686 667 707 708 668 
687 668 708 709 669 
688 669 709 710 670 
689 670 710 711 671 
690 671 711 712 672 
691 672 712 713 673 
692 673 713 714 674 
693 674 714 715 675 
694 675 715 716 676 
695 676 716 717 677 
696 677 717 718 678 
697 718 719 679 678 
698 719 720 680 679 
699 720 721 681 680 
700 721 722 682 681 
701 722 723 683 682 
702 723 724 684 683 
703 724 725 685 684 
704 725 726 686 685 
705 726 727 687 686 
706 727 728 688 687 
707 728 729 689 688 
708 729 730 690 689 
709 690 730 731 691 
710 691 731 732 692 
711 692 732 733 693 
712 693 733 734 694 
713 694 734 735 695 
714 695 735 736 696 
715 696 736 737 697 
716 697 737 698 658 
717 738 739 699 698 
718 739 740 700 699 
719 740 741 701 700 
720 741 742 702 701 
721 742 743 703 702 
722 743 744 704 703 
723 744 745 705 704 
724 745 746 706 705 
725 706 746 747 707 
726 707 747 748 708 
727 708 748 749 709 
728 709 749 750 710 
729 710 750 751 711 
730 711 751 752 712 
731 712 752 753 713 
732 713 753 754 714 
733 714 754 755 715 
734 715 755 756 716 
735 716 756 757 717 
736 717 757 758 718 
737 758 759 719 718 
738 759 760 720 719 
739 760 761 721 720 
740 761 762 722 721 
741 762 763 723 722 
742 763 764 724 723 
743 764 765 725 724 
744 765 766 726 725 
745 766 767 727 726 
746 767 768 728 727 
747 768 769 729 728 
748 769 770 730 729 
749 730 770 771 731 
750 731 771 772 732 
751 732 772 773 733 
752 733 773 774 734 
753 734 774 775 735 
754 735 775 776 736 
755 736 776 777 737 
756 737 777 738 698 
757 778 779 739 738 
758 779 780 740 739 
759 780 781 741 740 
760 781 782 742 741 
761 782 783 743 742 
762 783 784 744 743 
763 784 785 745 744 
764 785 786 746 745 
765 746 786 787 747 
766 747 787 788 748 
767 748 788 789 749 
768 749 789 790 750 
769 750 790 791 751 
770 751 791 792 752 
771 752 792 793 753 
772 753 793 794 754 
773 754 794 795 755 
774 755 795 796 756 
775 756 796 797 757 
776 757 797 798 758 
777 798 799 759 758 
778 799 800 760 759 
779 800 801 761 760 
780 801 802 762 761 
781 802 803 763 762 
782 803 804 764 763 
783 804 805 765 764 
784 805 806 766 765 
785 806 807 767 766 
786 807 808 768 767 
787 808 809 769 768 
788 809 810 770 769 
789 770 810 811 771 
790 771 811 812 772 
791 772 812 813 773 
792 773 813 814 774 
793 774 814 815 775 
794 775 815 816 776 
795 776 816 817 777 
796 777 817 778 738 
797 818 819 779 778 
798 819 820 780 779 
799 820 821 781 780 
800 821 822 782 781 
801 822 823 783 782 
802 823 824 784 783 
803 824 825 785 784 
804 825 826 786 785 
805 786 826 827 787 
806 787 827 828 788 
807 788 828 829 789 
808 789 829 830 790 
809 790 830 831 791 
810 791 831 832 792 
811 792 832 833 793 
812 793 833 834 794 
813 794 834 835 795 
814 795 835 836 796 
815 796 836 837 797 
816 797 837 838 798 
817 838 839 799 798 
818 839 840 800 799 
819 840 841 801 800 
820 841 842 802 801 
821 842 843 803 802 
822 843 844 804 803 
823 844 845 805 804 
824 845 846 806 805 
825 846 847 807 806 
826 847 848 808 807 
827 848 849 809 808 
828 849 850 810 809 
829 810 850 851 811 
830 811 851 852 812 
831 812 852 853 813 
832 813 853 854 814 
833 814 854 855 815 
834 815 855 856 816 
835 816 856 857 817 
836 817 857 818 778 
837 858 859 819 818 
838 859 860 820 819 
839 860 861 821 820 
840 861 862 822 821 
841 862 863 823 822 
842 863 864 824 823 
843 864 865 825 824 
844 865 866 826 825 
845 826 866 867 827 
846 827 867 868 828 
847 828 868 869 829 
848 829 869 870 830 
849 830 870 871 831 
850 831 871 872 832 
851 832 872 873 833 
852 833 873 874 834 
853 834 874 875 835 
854 835 875 876 836 
855 836 876 877 837 
856 837 877 878 838 
857 878 879 839 838 
858 879 880 840 839 
859 880 881 841 840 
860 881 882 842 841 
861 882 883 843 842 
862 883 884 844 843 
863 884 885 845 844 
864 885 886 846 845 
865 886 887 847 846 
866 887 888 848 847 
867 888 889 849 848 
868 889 890 850 849 
869 850 890 891 851 
870 851 891 892 852 
871 852 892 893 853 
872 853 893 894 854 
873 854 894 895 855 
874 855 895 896 856 
875 856 896 897 857 
876 857 897 858 818 
877 898 899 859 858 
878 899 900 860 859 
879 900 901 861 860 
880 901 902 862 861 
881 902 903 863 862 
882 903 904 864 863 
883 904 905 865 864 
884 905 906 866 865 
885 866 906 907 867 
886 867 907 908 868 
887 868 908 909 869 
888 869 909 910 870 
889 870 910 911 871 
890 871 911 912 872 
891 872 912 913 873 
892 873 913 914 874 
893 874 914 915 875 
894 875 915 916 876 
895 876 916 917 877 
896 877 917 918 878 
897 918 919 879 878 
898 919 920 880 879 
899 920 921 881 880 
900 921 922 882 881 
901 922 923 883 882 
902 923 924 884 883 
903 924 925 885 884 
904 925 926 886 885 
905 926 927 887 886 
906 927 928 888 887 
907 928 929 889 888 
908 929 930 890 889 
909 890 930 931 891 
910 891 931 932 892 
911 892 932 933 893 
912 893 933 934 894 
913 894 934 935 895 
914 895 935 936 896 
915 896 936 937 897 
916 897 937 898 858 
917 938 939 899 898 
918 939 940 900 899 
919 940 941 901 900 
920 941 942 902 901 
921 942 943 903 902 
922 943 944 904 903 
923 944 945 905 904 
924 945 946 906 905 
925 906 946 947 907 
926 907 947 948 908 
927 908 948 949 909 
928 909 949 950 910 
929 910 950 951 911 
930 911 951 952 912 
931 912 952 953 913 
932 913 953 954 914 
933 914 954 955 915 
934 915 955 956 916 
935 916 956 957 917 
936 917 957 958 918 
937 958 959 919 918 
938 959 960 920 919 
939 960 961 921 920 
940 961 962 922 921 
941 962 963 923 922 
942 963 964 924 923 
943 964 965 925 924 
944 965 966 926 925 
945 966 967 927 926 
946 967 968 928 927 
947 968 969 929 928 
948 969 970 930 929 
949 930 970 971 931 
950 931 971 972 932 
951 932 972 973 933 
952 933 973 974 934 
953 934 974 975 935 
954 935 975 976 936 
955 936 976 977 937 
956 937 977 938 898 
957 978 979 939 938 
958 979 980 940 939 
959 980 981 941 940 
960 981 982 942 941 
961 982 983 943 942 
962 983 984 944 943 
963 984 985 945 944 
964 985 986 946 945 
965 946 986 987 947 
966 947 987 988 948 
967 948 988 989 949 
968 949 989 990 950 
969 950 990 991 951 
970 951 991 992 952 
971 952 992 993 953 
972 953 993 994 954 
973 954 994 995 955 
974 955 995 996 956 
975 956 996 997 957 
976 957 997 998 958 
977 998 999 959 958 
978 999 1000 960 959 
979 1000 1001 961 960 
980 1001 1002 962 961 
981 1002 1003 963 962 
982 1003 1004 964 963 
983 1004 1005 965 964 
984 1005 1006 966 965 
985 1006 1007 967 966 
986 1007 1008 968 967 
987 1008 1009 969 968 
988 1009 1010 970 969 
989 970 1010 1011 971 
990 971 1011 1012 972 
991 972 1012 1013 973 
992 973 1013 1014 974 
993 974 1014 1015 975 
994 975 1015 1016 976 
995 976 1016 1017 977 
996 977 1017 978 938 
997 1018 1019 979 978 
998 1019 1020 980 979 
999 1020 1021 981 980 
1000 1021 1022 982 981 
1001 1022 1023 983 982 
1002 1023 1024 984 983 
1003 1024 1025 985 984 
1004 1025 1026 986 985 
1005 986 1026 1027 987 
1006 987 1027 1028 988 
1007 988 1028 1029 989 
1008 989 1029 1030 990 
1009 990 1030 1031 991 
1010 991 1031 1032 992 
1011 992 1032 1033 993 
1012 993 1033 1034 994 
1013 994 1034 1035 995 
1014 995 1035 1036 996 
1015 996 1036 1037 997 
1016 997 1037 1038 998 
1017 1038 1039 999 998 
1018 1039 1040 1000 999 
1019 1040 1041 1001 1000 
1020 1041 1042 1002 1001 
1021 1042 1043 1003 1002 
1022 1043 1044 1004 1003 
1023 1044 1045 1005 1004 
1024 1045 1046 1006 1005 
1025 1046 1047 1007 1006 
1026 1047 1048 1008 1007 
1027 1048 1049 1009 1008 
1028 1049 1050 1010 1009 
1029 1010 1050 1051 1011 
1030 1011 1051 1052 1012 
1031 1012 1052 1053 1013 
1032 1013 1053 1054 1014 
1033 1014 1054 1055 1015 
1034 1015 1055 1056 1016 
1035 1016 1056 1057 1017 
1036 1017 1057 1018 978 
1037 1058 1059 1019 1018 
1038 1059 1060 1020 1019 
1039 1060 1061 1021 1020 
1040 1061 1062 1022 1021 
1041 1062 1063 1023 1022 
1042 1063 1064 1024 1023 
1043 1064 1065 1025 1024 
1044 1065 1066 1026 1025 
1045 1026 1066 1067 1027 
1046 1027 1067 1068 1028 
1047 1028 1068 1069 1029 
1048 1029 1069 1070 1030 
1049 1030 1070 1071 1031 
1050 1031 1071 1072 1032 
1051 1032 1072 1073 1033 
1052 1033 1073 1074 1034 
1053 1034 1074 1075 1035 
1054 1035 1075 1076 1036 
1055 1036 1076 1077 1037 
1056 1037 1077 1078 1038 
1057 1078 1079 1039 1038 
1058 1079 1080 1040 1039 
1059 1080 1081 1041 1040 
1060 1081 1082 1042 1041 
1061 1082 1083 1043 1042 
1062 1083 1084 1044 1043 
1063 1084 1085 1045 1044 
1064 1085 1086 1046 1045 
1065 1086 1087 1047 1046 
1066 1087 1088 1048 1047 
1067 1088 1089 1049 1048 
1068 1089 1090 1050 1049 
1069 1050 1090 1091 1051 
1070 1051 1091 1092 1052 
1071 1052 1092 1093 1053 
1072 1053 1093 1094 1054 
1073 1054 1094 1095 1055 
1074 1055 1095 1096 1056 
1075 1056 1096 1097 1057 
1076 1057 1097 1058 1018 
1077 1098 1099 1059 1058 
1078 1099 1100 1060 1059 
1079 1100 1101 1061 1060 
1080 1101 1102 1062 1061 
1081 1102 1103 1063 1062 
1082 1103 1104 1064 1063 
1083 1104 1105 1065 1064 
1084 1105 1106 1066 1065 
1085 1066 1106 1107 1067 
1086 1067 1107 1108 1068 
1087 1068 1108 1109 1069 
1088 1069 1109 1110 1070 
1089 1070 1110 1111 1071 
1090 1071 1111 1112 1072 
1091 1072 1112 1113 1073 
1092 1073 1113 1114 1074 
1093 1074 1114 1115 1075 
1094 1075 1115 1116 1076 
1095 1076 1116 1117 1077 
1096 1077 1117 1118 1078 
1097 1118 1119 1079 1078 
1098 1119 1120 1080 1079 
1099 1120 1121 1081 1080 
1100 1121 1122 1082 1081 
1101 1122 1123 1083 1082 
1102 1123 1124 1084 1083 
1103 1124 1125 1085 1084 
1104 1125 1126 1086 1085 
1105 1126 1127 1087 1086 
1106 1127 1128 1088 1087 
1107 1128 1129 1089 1088 
1108 1129 1130 1090 1089 
1109 1090 1130 1131 1091 
1110 1091 1131 1132 1092 
1111 1092 1132 1133 1093 
1112 1093 1133 1134 1094 
1113 1094 1134 1135 1095 
1114 1095 1135 1136 1096 
1115 1096 1136 1137 1097 
1116 1097 1137 1098 1058 
1117 1138 1139 1099 1098 
1118 1139 1140 1100 1099 
1119 1140 1141 1101 1100 
1120 1141 1142 1102 1101 
1121 1142 1143 1103 1102 
1122 1143 1144 1104 1103 
1123 1144 1145 1105 1104 
1124 1145 1146 1106 1105 
1125 1106 1146 1147 1107 
1126 1107 1147 1148 1108 
1127 1108 1148 1149 1109 
1128 1109 1149 1150 1110 
1129 1110 1150 1151 1111 
1130 1111 1151 1152 1112 
1131 1112 1152 1153 1113 
1132 1113 1153 1154 1114 
1133 1114 1154 1155 1115 
1134 1115 1155 1156 1116 
1135 1116 1156 1157 1117 
1136 1117 1157 1158 1118 
1137 1158 1159 1119 1118 
1138 1159 1160 1120 1119 
1139 1160 1161 1121 1120 
1140 1161 1162 1122 1121 
1141 1162 1163 1123 1122 
1142 1163 1164 1124 1123 
1143 1164 1165 1125 1124 
1144 1165 1166 1126 1125 
1145 1166 1167 1127 1126 
1146 1167 1168 1128 1127 
1147 1168 1169 1129 1128 
1148 1169 1170 1130 1129 
1149 1130 1170 1171 1131 
1150 1131 1171 1172 1132 
1151 1132 1172 1173 1133 
1152 1133 1173 1174 1134 
1153 1134 1174 1175 1135 
1154 1135 1175 1176 1136 
1155 1136 1176 1177 1137 
1156 1137 1177 1138 1098 
1157 1178 1179 1139 1138 
1158 1179 1180 1140 1139 
1159 1180 1181 1141 1140 
1160 1181 1182 1142 1141 
1161 1182 1183 1143 1142 
1162 1183 1184 1144 1143 
1163 1184 1185 1145 1144 
1164 1185 1186 1146 1145 
1165 1146 1186 1187 1147 
1166 1147 1187 1188 1148 
1167 1148 1188 1189 1149 
1168 1149 1189 1190 1150 
1169 1150 1190 1191 1151 
1170 1151 1191 1192 1152 
1171 1152 1192 1193 1153 
1172 1153 1193 1194 1154 
1173 1154 1194 1195 1155 
1174 1155 1195 1196 1156 
1175 1156 1196 1197 1157 
1176 1157 1197 1198 1158 
1177 1198 1199 1159 1158 
1178 1199 1200 1160 1159 
1179 1200 1201 1161 1160 
1180 1201 1202 1162 1161 
1181 1202 1203 1163 1162 
1182 1203 1204 1164 1163 
1183 1204 1205 1165 1164 
1184 1205 1206 1166 1165 
1185 1206 1207 1167 1166 
1186 1207 1208 1168 1167 
1187 1208 1209 1169 1168 
1188 1209 1210 1170 1169 
1189 1170 1210 1211 1171 
1190 1171 1211 1212 1172 
1191 1172 1212 1213 1173 
1192 1173 1213 1214 1174 
1193 1174 1214 1215 1175 
1194 1175 1215 1216 1176 
1195 1176 1216 1217 1177 
1196 1177 1217 1178 1138 
1197 1218 1219 1180 1179 
1198 1219 1220 1181 1180 
1199 1220 1221 1182 1181 
1200 1221 1222 1183 1182 
1201 1222 1223 1184 1183 
1202 1223 1224 1185 1184 
1203 1224 1225 1186 1185 
1204 1186 1225 1226 1187 
1205 1187 1226 1227 1188 
1206 1188 1227 1228 1189 
1207 1189 1228 1229 1190 
1208 1190 1229 1230 1191 
1209 1191 1230 1231 1192 
1210 1192 1231 1232 1193 
1211 1193 1232 1233 1194 
1212 1194 1233 1234 1195 
1213 1195 1234 1235 1196 
1214 1196 1235 1236 1197 
1215 1237 1238 1200 1199 
1216 1238 1239 1201 1200 
1217 1239 1240 1202 1201 
1218 1240 1241 1203 1202 
1219 1241 1242 1204 1203 
1220 1242 1243 1205 1204 
1221 1243 1244 1206 1205 
1222 1244 1245 1207 1206 
1223 1245 1246 1208 1207 
1224 1246 1247 1209 1208 
1225 1247 1248 1210 1209 
1226 1210 1248 1249 1211 
1227 1211 1249 1250 1212 
1228 1212 1250 1251 1213 
1229 1213 1251 1252 1214 
1230 1214 1252 1253 1215 
1231 1215 1253 1254 1216 
1232 1216 1254 1255 1217 
1233 1179 1178 1256 1218 
1234 1256 1257 1219 1218 
1235 1257 1258 1220 1219 
1236 1258 1259 1221 1220 
1237 1259 1260 1222 1221 
1238 1260 1261 1223 1222 
1239 1261 1262 1224 1223 
1240 1262 1263 1225 1224 
1241 1225 1263 1264 1226 
1242 1226 1264 1265 1227 
1243 1227 1265 1266 1228 
1244 1228 1266 1267 1229 
1245 1229 1267 1268 1230 
1246 1230 1268 1269 1231 
1247 1231 1269 1270 1232 
1248 1232 1270 1271 1233 
1249 1233 1271 1272 1234 
1250 1234 1272 1273 1235 
1251 1235 1273 1274 1236 
1252 1197 1236 1274 1198 
1253 1199 1198 1274 1237 
1254 1274 1273 1238 1237 
1255 1273 1272 1239 1238 
1256 1272 1271 1240 1239 
1257 1271 1270 1241 1240 
1258 1270 1269 1242 1241 
1259 1269 1268 1243 1242 
1260 1268 1267 1244 1243 
1261 1267 1266 1245 1244 
1262 1266 1265 1246 1245 
1263 1265 1264 1247 1246 
1264 1264 1263 1248 1247 
1265 1248 1263 1262 1249 
1266 1249 1262 1261 1250 
1267 1250 1261 1260 1251 
1268 1251 1260 1259 1252 
1269 1252 1259 1258 1253 
1270 1253 1258 1257 1254 
1271 1254 1257 1256 1255 
1272 1217 1255 1256 1178 
$EndElements
